<?xml version="1.0" encoding="utf-8"?>
<!-- Generator: Adobe Illustrator 19.2.1, SVG Export Plug-In . SVG Version: 6.00 Build 0)  -->
<svg version="1.1" id="Layer_1" xmlns="http://www.w3.org/2000/svg" xmlns:xlink="http://www.w3.org/1999/xlink" x="0px" y="0px"
	 width="56.6934px" height="56.6934px" viewBox="0 0 56.6934 56.6934" style="enable-background:new 0 0 56.6934 56.6934;"
	 xml:space="preserve">
<g>
	<g>
		<path d="M28.3848,4.0688c-13.5997,0-24.6245,11.0248-24.6245,24.6245c0,13.5997,11.0248,24.6246,24.6245,24.6246
			c13.5998,0,24.6245-11.0249,24.6245-24.6246C53.0093,15.0936,41.9846,4.0688,28.3848,4.0688z M42.0939,36.7295
			c-0.3238,2.1792-1.7668,4.0637-3.8281,4.8884c-0.7362,0.3237-1.5608,0.4709-2.3854,0.4709c-0.2354,0-0.53-0.0293-0.7657-0.0588
			c-0.9716-0.1178-1.973-0.4417-2.9446-1.0012c-1.178-0.6774-2.3559-1.6489-3.6516-3.0625
			c-1.2957,1.4136-2.4442,2.3851-3.6516,3.0625c-0.9719,0.5596-1.973,0.8834-2.9448,1.0012
			c-0.2354,0.0295-0.53,0.0588-0.7656,0.0588c-0.8246,0-1.6195-0.1472-2.3851-0.4709c-2.0319-0.8247-3.5043-2.6797-3.8283-4.8884
			c-0.147-1.0602-0.0295-2.0907,0.3535-3.1804c0.1473-0.3828,0.2946-0.7362,0.4416-1.0601
			c0.2357-0.5299,0.4713-1.0305,0.6773-1.5017l0.0295-0.0591c2.0319-4.4169,4.2405-8.8931,6.508-13.3101l0.0884-0.1768
			c0.2354-0.4417,0.4711-0.913,0.7067-1.384c0.2944-0.5301,0.6184-1.0895,1.06-1.6198c0.9719-1.119,2.297-1.7668,3.7694-1.7668
			c1.443,0,2.7975,0.6478,3.7397,1.8257c0.4713,0.53,0.7656,1.0897,1.0602,1.6197c0.2354,0.4711,0.4711,0.9422,0.7067,1.384
			l0.0884,0.1768c2.2968,4.417,4.4759,8.8931,6.5078,13.3102l0.0295,0.0293c0.2062,0.4712,0.4418,0.9719,0.6773,1.502
			c0.1473,0.3237,0.2946,0.7068,0.4418,1.0601C42.2117,34.6682,42.3296,35.6988,42.0939,36.7295z"/>
	</g>
	<g>
		<path d="M31.6107,27.8365c-0.0589-0.4712-0.2357-0.8835-0.4714-1.2368c-0.5299-0.8246-1.5018-1.2957-2.5913-1.2957
			c-1.0897,0-2.0319,0.5005-2.5912,1.2957c-0.2357,0.3532-0.4125,0.7656-0.4714,1.2368c-0.0884,0.53-0.0589,1.1189,0.0883,1.7961
			c0.3536,1.5903,1.3841,3.4749,2.9743,5.4773c1.5902-2.032,2.6208-3.9165,2.9743-5.4773
			C31.6695,28.9849,31.6989,28.3665,31.6107,27.8365z"/>
	</g>
	<g>
		<path d="M39.7088,33.2842c-0.2357-0.4711-0.4418-1.0012-0.6773-1.4724v-0.0295c-2.0319-4.3877-4.211-8.8636-6.449-13.2513
			l-0.0882-0.1765c-0.2357-0.4419-0.4713-0.913-0.7067-1.3546c-0.2357-0.4713-0.5008-0.9129-0.8246-1.2957
			c-0.6183-0.7067-1.443-1.0897-2.3559-1.0897c-0.913,0-1.7373,0.3829-2.356,1.0897c-0.3237,0.3828-0.5889,0.8243-0.8243,1.2957
			c-0.2357,0.4417-0.4713,0.9127-0.7067,1.3546l-0.0884,0.1765c-2.2675,4.3583-4.4468,8.8344-6.4786,13.222l-0.0295,0.0588
			c-0.2355,0.5006-0.4711,1.0013-0.6772,1.4724c-0.1473,0.3533-0.2944,0.6479-0.3828,0.9421
			c-0.2946,0.8246-0.3535,1.5608-0.2651,2.2971c0.2062,1.5312,1.2368,2.8564,2.6797,3.4453
			c0.6773,0.2651,1.4429,0.3827,2.2381,0.2946c0.7362-0.0884,1.4724-0.3241,2.2381-0.7657c1.06-0.5889,2.1497-1.5017,3.357-2.8564
			c-1.9141-2.3853-3.1216-4.5936-3.5632-6.5371c-0.2357-0.8835-0.2649-1.7375-0.1473-2.5032
			c0.1179-0.7363,0.383-1.4136,0.7952-2.0025c0.9129-1.2956,2.4442-2.0908,4.152-2.0908c1.7081,0,3.2392,0.7657,4.1522,2.0908
			c0.4121,0.5889,0.6773,1.2662,0.7951,2.0025c0.0884,0.7656,0.059,1.5901-0.1473,2.5032
			c-0.4417,1.9435-1.6194,4.1223-3.5632,6.5078c1.2369,1.3545,2.2969,2.2675,3.3569,2.8564
			c0.7657,0.4415,1.5019,0.6772,2.2381,0.7656c0.7656,0.0884,1.5313,0,2.2381-0.2947c1.4429-0.5889,2.4734-1.9141,2.6797-3.4453
			c0.1178-0.7656,0.0294-1.5018-0.2062-2.2676C40.0031,33.9322,39.8561,33.6375,39.7088,33.2842z"/>
	</g>
</g>
</svg>
