<?xml version="1.0" encoding="utf-8"?>
<!-- Generator: Adobe Illustrator 19.1.0, SVG Export Plug-In . SVG Version: 6.00 Build 0)  -->
<svg version="1.1" id="Layer_1" xmlns="http://www.w3.org/2000/svg" xmlns:xlink="http://www.w3.org/1999/xlink" x="0px" y="0px"
	 viewBox="-91 49.217 56.693 56.693" enable-background="new -91 49.217 56.693 56.693" xml:space="preserve">
<g>
	<path d="M-39.9219,86.3863h-2.6791v1.2498h2.6901c0.8926,0,1.5519-0.2508,1.8903-0.7455c0.1968-0.2846,0.294-0.6489,0.294-1.0938
		c0-0.5095-0.0972-0.825-0.294-1.0907c-0.039-0.0498-0.0728-0.0999-0.1293-0.1442c-0.31-0.3196-0.8186-0.4504-1.5804-0.4694
		l-0.7549-0.0202c-0.2319,0-0.3898-0.0148-0.5367-0.0659c-0.1806-0.0649-0.3047-0.2142-0.3047-0.4343
		c0-0.1849,0.0566-0.325,0.2036-0.4194c0.142-0.0958,0.3104-0.1052,0.5637-0.1052h2.5388V53.5678h-49.5579v20.9177l1.6867-3.864
		h3.6324l0.468,0.9599v-0.9599h4.2593l0.9317,2.0992l0.9073-2.0992h13.5226c0.6147,0,1.1675,0.1146,1.5732,0.4745v-0.4745h3.7015
		v0.4745c0.6375-0.3492,1.4266-0.4745,2.3245-0.4745h5.3636l0.4976,0.9599v-0.9599h3.9708l0.5419,0.9599v-0.9599h3.8699v8.1277
		h-3.9103l-0.739-1.2296v1.2296h-4.8795l-0.5301-1.2944h-1.2014l-0.5419,1.2944h-2.532c-0.9937,0-1.7488-0.2346-2.2343-0.4947
		v0.4947h-6.019v-1.8444c0-0.2603-0.0461-0.2749-0.2037-0.2804h-0.2252l0.0054,2.1248h-11.6375v-1.0044l-0.418,1.0085h-2.4309
		l-0.418-0.9938v0.9896h-4.6829l-0.5352-1.2944h-1.2014l-0.5366,1.2944h-2.3799v24.5558h49.5579V88.4055
		c-0.558,0.2697-1.2917,0.3749-2.0427,0.3749h-3.6093V88.26c-0.4182,0.3356-1.1733,0.5205-1.8958,0.5205H-56.947v-1.8796
		c0-0.2303-0.0228-0.2399-0.2534-0.2399h-0.1807v2.1199h-3.7457v-2.1951c-0.627,0.2709-1.3376,0.2952-1.9401,0.2859h-0.4465v1.9133
		l-4.5412-0.0042l-1.1166-1.2643l-1.1851,1.2643h-7.3673v-8.1332h7.5086l1.0773,1.2448l1.1502-1.2448h5.0265
		c0.5812,0,1.5345,0.0607,1.9633,0.476v-0.476h4.4913c0.4219,0,1.3363,0.0851,1.8782,0.476v-0.476h6.8091v0.476
		c0.3385-0.3249,1.0543-0.476,1.664-0.476h3.813v0.476c0.4001-0.2896,0.9653-0.476,1.7433-0.476h2.5779v1.1597h-2.7746
		c-1.4618,0-1.9985,0.8898-1.9985,1.7354c0,1.8445,1.6317,1.7598,2.9395,1.8041c0.2427,0,0.3898,0.0405,0.4908,0.1294
		c0.1025,0.0811,0.1703,0.2156,0.1703,0.3856c0,0.1589-0.0678,0.29-0.1648,0.38C-39.4701,86.3512-39.6562,86.3863-39.9219,86.3863z"
		/>
	<path d="M-54.3175,83.3765c0-0.665-0.2765-1.0287-0.7161-1.2943c-0.4573-0.2441-0.9709-0.2751-1.676-0.2751h-3.2159v5.829h1.3997
		v-2.129h1.4886c0.5082,0,0.8184,0.05,1.022,0.2589c0.2589,0.2709,0.2252,0.7903,0.2252,1.1408v0.7294h1.3983v-1.1554
		c-0.0054-0.5139-0.0339-0.7795-0.2307-1.0641c-0.1188-0.1697-0.3723-0.3749-0.6823-0.4894
		C-54.9382,84.7816-54.3177,84.3068-54.3175,83.3765z M-56.146,84.2018c-0.1865,0.1105-0.4168,0.1202-0.6879,0.1202h-1.6921v-1.3092
		h1.7151c0.248,0,0.4963,0.0053,0.6649,0.1052c0.1805,0.0944,0.2883,0.275,0.2883,0.5242
		C-55.8577,83.8918-55.9655,84.0926-56.146,84.2018z"/>
	<path d="M-62.927,81.8071h-4.4509l-1.7718,1.9106l-1.7138-1.9106h-5.6024v5.829h5.5176l1.7824-1.9296l1.7151,1.9296h2.7075v-1.9551
		h1.738c1.2177,0,2.4258-0.3342,2.4258-1.9536C-60.5795,82.1132-61.8216,81.8071-62.927,81.8071z M-71.6534,86.4213h-3.4248v-1.1597
		h3.058v-1.1892h-3.058v-1.0598h3.4922l1.5236,1.6987L-71.6534,86.4213z M-66.1305,87.1058l-2.1386-2.3743l2.1386-2.2988V87.1058z
		 M-62.9431,84.497h-1.8002v-1.4843h1.8163c0.5029,0,0.8519,0.205,0.8519,0.7146C-62.0751,84.2317-62.408,84.497-62.9431,84.497z"/>
	<path d="M-54.4811,73.0256h1.3204v-1.2487h-1.3487c-0.9598,0-1.665,0.2145-2.1152,0.6796c-0.5988,0.6243-0.751,1.4144-0.751,2.2786
		c0,1.0598,0.2547,1.7299,0.7443,2.2248c0.4854,0.4948,1.3427,0.6445,2.0197,0.6445h1.63l0.5259-1.2998h2.8935l0.5421,1.2998h2.8367
		v-4.3739l2.6403,4.3739h1.9738v-5.8274h-1.4268v4.0587l-2.4484-4.0587h-2.1208v5.5121l-2.3583-5.5121h-2.0871L-53.974,76.36
		h-0.6255c-0.3666,0-0.7563-0.0699-0.9707-0.3006c-0.259-0.294-0.3831-0.7443-0.3831-1.3685c0-0.6108,0.1629-1.0746,0.4005-1.32
		C-55.2763,73.1012-54.9893,73.0256-54.4811,73.0256z M-51.001,72.7667l0.9639,2.3231h-1.9225L-51.001,72.7667z"/>
	<path d="M-45.3595,86.3863h-2.7021v1.2498h2.713c1.4048,0,2.1882-0.5854,2.1882-1.8392c0-0.6-0.1454-0.9544-0.4166-1.2349
		c-0.3155-0.3196-0.8346-0.4504-1.5907-0.469l-0.7498-0.0203c-0.2374,0-0.3951-0.0147-0.5421-0.0659
		c-0.1753-0.0649-0.3049-0.2142-0.3049-0.4343c0-0.1849,0.0566-0.325,0.209-0.4193c0.1403-0.0958,0.3049-0.1052,0.5582-0.1052
		h2.5552v-1.2407h-2.7925c-1.4603,0-1.9915,0.8898-1.9915,1.7354c0,1.8445,1.6313,1.7598,2.934,1.8041
		c0.2426,0,0.3895,0.0405,0.4961,0.1294c0.0956,0.0809,0.1699,0.2156,0.1699,0.3856c0,0.1589-0.0688,0.29-0.1646,0.38
		C-44.9081,86.3512-45.0953,86.3863-45.3595,86.3863z"/>
	<path d="M-82.6086,76.3046l0.5352,1.2998h2.8331v-4.5681l2.025,4.5681h1.223l2.0198-4.5641l0.0054,4.5641h1.4278v-5.8276h-2.3192
		l-1.6746,3.9534l-1.8229-3.9534h-2.2734v5.5175l-2.3691-5.5175h-2.0694l-2.4944,5.8276h1.5129l0.5407-1.2998H-82.6086z
		 M-84.0649,72.7667l0.9534,2.3231h-1.9014L-84.0649,72.7667z"/>
	<path d="M-60.2872,73.3464c0-0.65-0.2642-1.03-0.7048-1.2904c-0.4503-0.2602-0.9748-0.2791-1.6866-0.2791h-3.2039v5.8276h1.3929
		v-2.1196h1.4952c0.5014,0,0.8118,0.0445,1.0151,0.2495c0.2535,0.2803,0.2199,0.7846,0.2199,1.1353l0.0053,0.7349h1.405v-1.1448
		c0-0.5205-0.0339-0.7794-0.2305-1.0693c-0.1239-0.1697-0.3843-0.3747-0.6891-0.4907
		C-60.9072,74.7556-60.2872,74.2755-60.2872,73.3464z M-62.1086,74.1648c-0.1914,0.1162-0.4178,0.1201-0.689,0.1201h-1.6921v-1.2943
		h1.7151c0.2427,0,0.4961,0.0109,0.6605,0.105c0.1807,0.085,0.2925,0.2656,0.2925,0.5152
		C-61.8216,73.8655-61.928,74.0705-62.1086,74.1648z"/>
	<rect x="-59.4792" y="71.7769" width="1.4213" height="5.8276"/>
	<polygon points="-48.8962,83.0126 -48.8962,81.8071 -53.5452,81.8071 -53.5452,87.6361 -48.8962,87.6361 -48.8962,86.4266 
		-52.1581,86.4213 -52.1581,85.2616 -48.9759,85.2616 -48.9759,84.0724 -52.1581,84.0724 -52.1581,83.0126 	"/>
	<polygon points="-66.8479,72.9905 -66.8479,71.7769 -71.5012,71.7769 -71.5012,77.6045 -66.8479,77.6045 -66.8479,76.3991 
		-70.108,76.3991 -70.108,75.2354 -66.9261,75.2354 -66.9261,74.0408 -70.108,74.0408 -70.108,72.9905 	"/>
</g>
</svg>
