<?xml version="1.0" encoding="utf-8"?>
<!-- Generator: Adobe Illustrator 19.1.0, SVG Export Plug-In . SVG Version: 6.00 Build 0)  -->
<svg version="1.1" id="Layer_1" xmlns="http://www.w3.org/2000/svg" xmlns:xlink="http://www.w3.org/1999/xlink" x="0px" y="0px"
	 viewBox="-91 49.217 56.693 56.693" enable-background="new -91 49.217 56.693 56.693" xml:space="preserve">
<path fill="#231F20" d="M-62.6662,54.188c-13.5995,0-24.6249,11.0234-24.6249,24.623c0,13.5997,11.0254,24.625,24.6249,24.625
	c13.5986,0,24.624-11.0253,24.624-24.625C-38.0422,65.2114-49.0676,54.188-62.6662,54.188z M-52.8419,68.044l-5.8474,11.4871
	l0.5936,0.653h5.2538v8.1329h-9.6764l-0.9795,0.6233l-2.6417,5.3132l-0.564,0.564h-5.7881v-5.9662l5.8177-11.5167l-0.4453-0.4453
	h-5.3725v-8.2814h9.806l0.7905-0.6827l2.6714-5.3131l0.6827-0.5046h5.699V68.044z"/>
</svg>
