<?xml version="1.0" encoding="utf-8"?>
<!-- Generator: Adobe Illustrator 19.1.0, SVG Export Plug-In . SVG Version: 6.00 Build 0)  -->
<svg version="1.1" id="Layer_1" xmlns="http://www.w3.org/2000/svg" xmlns:xlink="http://www.w3.org/1999/xlink" x="0px" y="0px"
	 viewBox="-91 49.217 56.693 56.693" enable-background="new -91 49.217 56.693 56.693" xml:space="preserve">
<g>
	<path d="M-79.6171,63.485c0,0,0,0,0.003,0h4.5732c0.262,0,0.4728-0.2134,0.4733-0.4734c0-0.0016-0.0555-3.9213-0.0555-5.0112
		v-0.0129c0-0.8952,0.1879-1.6757,0.5152-2.3297l0.1564-0.2938c-0.0175,0.003-0.035,0.0115-0.0524,0.029l-8.8859,8.8116
		c-0.0174,0.0143-0.0283,0.0328-0.0333,0.0519c0.1838-0.0909,0.4351-0.2153,0.4706-0.2308
		C-81.6786,63.6764-80.7402,63.485-79.6171,63.485z"/>
	<path d="M-44.0314,62.5255c-0.3633-1.9446-1.5194-2.903-2.5648-3.2798c-1.1278-0.4076-3.4146-0.8298-6.2879-1.1685
		c-2.3116-0.2722-5.0286-0.2505-6.6697-0.1998c-0.197-1.3491-1.1432-2.5817-2.202-3.0084c-2.8211-1.1355-7.1798-0.8611-8.299-0.5475
		c-0.8893,0.2485-1.8735,0.7579-2.4214,1.5428c-0.3674,0.5243-0.605,1.196-0.6069,2.1343c0,0.5311,0.0148,1.7822,0.0283,2.8937
		c0.0134,1.1151,0.0281,2.1123,0.0281,2.1191c-0.0005,0.9927-0.8051,1.8006-1.8022,1.8019h-4.574
		c-0.9756,0-1.7211,0.1639-2.2905,0.4227c-0.5704,0.2589-0.9743,0.608-1.2812,1.0211c-0.6109,0.8201-0.717,1.8322-0.7144,2.8649
		c0,0,0.009,0.844,0.2123,2.4775c0.1691,1.264,1.5397,10.0936,2.8417,12.7789c0.5048,1.0449,0.841,1.48,1.8327,1.9405
		c2.2097,0.946,7.2568,1.9985,9.6223,2.2999c2.3612,0.3021,3.8432,0.9372,4.7264-0.9146c0.003-0.0046,0.1769-0.4608,0.4162-1.1298
		c0.7668-2.3235,0.8735-4.3851,0.8735-5.877c0-0.1517,0.2226-0.1586,0.2226,0c0,1.0533-0.2011,4.7805,2.6144,5.7805
		c1.1115,0.3942,3.4173,0.7456,5.7601,1.0203c2.1184,0.2435,3.6558,1.0771,3.6558,6.512c0,3.3066-0.6945,3.76-4.3253,3.76
		c-2.9432,0-4.0648,0.0762-4.0648-2.262c0-1.8898,1.869-1.6917,3.2543-1.6917c0.6187,0,0.1696-0.4602,0.1696-1.6262
		c0-1.1597,0.7253-1.8302,0.0393-1.8472c-4.79-0.1318-7.6084-0.0056-7.6084,5.985c0,5.4384,2.0812,6.4482,8.8795,6.4482
		c5.3303,0,7.2092-0.1746,9.4102-7.0035c0.4356-1.3481,1.4888-5.4623,2.1263-12.3699
		C-42.6274,79.0353-43.4104,65.8527-44.0314,62.5255z M-53.3231,77.0965c-0.6585-0.0231-1.2919,0.0186-1.8825,0.1135
		c0.1662-1.3425,0.7203-2.9898,2.6832-2.9208c2.173,0.0747,2.4774,2.1285,2.4852,3.5196
		C-50.9535,77.4002-52.0877,77.1399-53.3231,77.0965z"/>
</g>
</svg>
