<?xml version="1.0" encoding="utf-8"?>
<!-- Generator: Adobe Illustrator 19.2.1, SVG Export Plug-In . SVG Version: 6.00 Build 0)  -->
<svg version="1.1" id="Layer_1" xmlns="http://www.w3.org/2000/svg" xmlns:xlink="http://www.w3.org/1999/xlink" x="0px" y="0px"
	 width="56.6934px" height="56.6934px" viewBox="0 0 56.6934 56.6934" style="enable-background:new 0 0 56.6934 56.6934;"
	 xml:space="preserve">
<g>
	<polygon points="26.8137,25.055 18.403,34.039 26.049,29.8338 29.9676,34.039 38.3783,25.055 30.8278,29.2603 	"/>
	<path d="M28.3471,4.4841c-13.5996,0-24.6249,11.0234-24.6249,24.623c0,13.5997,11.0253,24.625,24.6249,24.625
		c13.5986,0,24.624-11.0253,24.624-24.625C52.9712,15.5075,41.9457,4.4841,28.3471,4.4841z M28.4384,43.4054
		c-1.5342,0-3.0155-0.2102-4.4138-0.5996l-5.2393,2.8934v-5.4662c-3.4969-2.6279-5.7346-6.6523-5.7346-11.1639
		c0-7.9177,6.8893-14.3362,15.3876-14.3362S43.826,21.1514,43.826,29.0691C43.826,36.987,36.9368,43.4054,28.4384,43.4054z"/>
</g>
</svg>
