<?xml version="1.0" encoding="utf-8"?>
<!-- Generator: Adobe Illustrator 19.2.1, SVG Export Plug-In . SVG Version: 6.00 Build 0)  -->
<svg version="1.1" id="Layer_1" xmlns="http://www.w3.org/2000/svg" xmlns:xlink="http://www.w3.org/1999/xlink" x="0px" y="0px"
	 width="56.7px" height="56.7px" viewBox="0 0 56.7 56.7" style="enable-background:new 0 0 56.7 56.7;" xml:space="preserve">
<g>
	<path d="M23.0224,17.7972c-0.1953-0.1953-0.5117-0.1953-0.707,0l-3.0322,3.0317c-0.0938,0.0938-0.1465,0.2207-0.1465,0.3535
		s0.0527,0.2598,0.1465,0.3535l8.8838,8.8833c0.0977,0.0977,0.2256,0.1465,0.3535,0.1465s0.2559-0.0488,0.3535-0.1465
		l17.7549-17.7549c0.1953-0.1953,0.1953-0.5117,0-0.707l-3.0317-3.0322c-0.0938-0.0938-0.2207-0.1465-0.3535-0.1465
		S42.9838,8.8314,42.89,8.9251L28.5204,23.2952L23.0224,17.7972z"/>
	<path d="M53.0978,23.701c-0.0001-0.0004-0.0005-0.0007-0.0007-0.0011c-0.2549-0.7663-0.7205-1.4108-1.348-1.8636l-7.4805-5.3976
		l-1.4325,1.4325l7.6515,5.5209l0.0911,0.0657c0.0811,0.0586,0.1426,0.1412,0.2119,0.2148c0.0166,0.0176,0.035,0.033,0.0508,0.0515
		c0.0707,0.2159-0.0034,0.4578-0.2056,0.5809L5.6591,51.6898c0.4562,0.1978,0.9576,0.31,1.4856,0.31h42.4102
		c2.0679,0,3.7505-1.6821,3.7505-3.75V24.8773C53.3053,24.5067,53.2374,24.1219,53.0978,23.701z"/>
	<path d="M5.9092,23.6724c0.069-0.0732,0.1304-0.1557,0.2111-0.2141L27.3253,8.1575c0.6133-0.4424,1.4355-0.4424,2.0488,0
		l7.4755,5.394l1.4325-1.4326l-7.738-5.5835c-1.3125-0.9473-3.0762-0.9473-4.3887,0L4.9499,21.8367
		c-0.6257,0.452-1.0917,1.0956-1.3472,1.8622c-0.0002,0.0005-0.0007,0.001-0.0009,0.0015c-0.1392,0.4199-0.207,0.8047-0.207,1.1768
		v23.3726c0,1.1402,0.5223,2.1506,1.3278,2.8389L27.83,37.0193L5.9092,23.6724z"/>
</g>
</svg>
