<?xml version="1.0" encoding="utf-8"?>
<!-- Generator: Adobe Illustrator 19.1.0, SVG Export Plug-In . SVG Version: 6.00 Build 0)  -->
<svg version="1.1" id="Layer_1" xmlns="http://www.w3.org/2000/svg" xmlns:xlink="http://www.w3.org/1999/xlink" x="0px" y="0px"
	 viewBox="-91 49.217 56.693 56.693" enable-background="new -91 49.217 56.693 56.693" xml:space="preserve">
<g>
	<path fill="#231F20" d="M-64.0915,72.5508L-64.0915,72.5508c-0.7114-0.1332-1.4753-0.1625-2.2421,0
		c-1.691,0.4507-2.918,1.9764-3.3881,4.2019c-0.3302,1.5629-0.2402,3.369,0.2325,4.7914c0.7361,2.2153,2.3344,3.4662,4.2766,3.4462
		c1.9423,0.0201,3.5405-1.231,4.2766-3.4462c0.4727-1.4225,0.5627-3.2285,0.2325-4.7914
		C-61.1734,74.5272-62.4005,73.0015-64.0915,72.5508z"/>
	<path fill="#231F20" d="M-62.4995,54.3363c-13.5996,0-24.625,11.0234-24.625,24.623c0,13.5997,11.0254,24.625,24.625,24.625
		c13.5986,0,24.624-11.0253,24.624-24.625C-37.8755,65.3597-48.9009,54.3363-62.4995,54.3363z M-74.8625,87.5h-3.1592V75.0847
		h3.1592V87.5z M-76.4421,73.3077c-0.9336,0-1.6904-0.7569-1.6904-1.6905c0-0.9337,0.7568-1.6905,1.6904-1.6905
		c0.9337,0,1.6905,0.7568,1.6905,1.6905C-74.7516,72.5508-75.5085,73.3077-76.4421,73.3077z M-61.6667,86.7674
		c-0.7635,0.3622-1.5287,0.5594-2.6905,0.6975c-0.5728,0.0654-1.1226,0.0238-1.7106,0c-1.1618-0.1381-1.9271-0.3353-2.6906-0.6975
		c-2.8262-1.341-4.4261-4.2076-4.4261-7.9387c0-3.7225,1.6265-6.6769,4.4427-8.0799c1.1028-0.5494,2.2254-0.8049,3.5292-0.8221
		c1.3038,0.0172,2.4264,0.2727,3.5292,0.8221c2.8162,1.403,4.4427,4.3574,4.4427,8.0799
		C-57.2406,82.5598-58.8404,85.4264-61.6667,86.7674z M-45.7984,84.4176c-0.8068,1.7454-2.4516,2.7598-4.9219,3.0355
		c-0.4629,0.0516-1.5532,0.0634-1.9269,0.0209h-0.0001c-1.3535-0.2318-2.6553-0.4114-3.7604-1.0386
		c-0.0147-0.0129,0.6524-2.5055,0.6825-2.55c1.7761,0.603,4.2763,1.449,5.962,0.6741c0.9191-0.4598,1.3718-1.3097,1.2197-2.2899
		c-0.1711-1.1027-0.9347-1.7381-3.0303-2.5215c-2.3373-0.8738-3.7081-1.9479-4.2682-3.3445
		c-0.2755-0.6868-0.3668-1.561-0.2429-2.3248c0.3446-2.124,1.9993-3.6016,4.5387-4.0532c0.7357-0.1309,2.309-0.1322,3.0831-0.0027
		c1.1156,0.1866,2.3949,0.6086,2.3949,0.7899c0,0.067-0.6537,2.3716-0.6872,2.4226c-1.103-0.4368-2.34-0.7491-3.3869-0.7551
		c-1.4814-0.0207-3.0878,0.8586-2.8046,2.4114c0.2006,0.9731,0.8217,1.4483,3.1075,2.3771
		c1.6835,0.6841,2.4913,1.1559,3.1838,1.8597c0.9622,0.9609,1.2664,2.0882,1.2734,3.2055
		C-45.3796,83.2649-45.4663,83.6991-45.7984,84.4176z"/>
</g>
</svg>
