<?xml version="1.0" encoding="utf-8"?>
<!-- Generator: Adobe Illustrator 19.2.0, SVG Export Plug-In . SVG Version: 6.00 Build 0)  -->
<svg version="1.1" id="Layer_1" xmlns="http://www.w3.org/2000/svg" xmlns:xlink="http://www.w3.org/1999/xlink" x="0px" y="0px"
	 width="56.6934px" height="56.6934px" viewBox="0 0 56.6934 56.6934" style="enable-background:new 0 0 56.6934 56.6934;"
	 xml:space="preserve">
<g>
	<path d="M23.0556,33.4256c1.1217,0,2.0306-0.46,2.7278-1.3771c0.697-0.9176,1.046-2.1266,1.045-3.6263
		c0-1.4594-0.3363-2.6339-1.0089-3.5256c-0.6715-0.8921-1.5529-1.3369-2.6415-1.3369c-1.1527,0-2.0787,0.4658-2.778,1.3973
		c-0.6991,0.9312-1.0483,2.1509-1.0483,3.6588c0,1.4286,0.3448,2.5866,1.0324,3.4763
		C21.0729,32.9808,21.9625,33.4256,23.0556,33.4256z M21.6943,26.2582c0.3546-0.5648,0.8345-0.8481,1.437-0.8481
		c0.5854,0,1.0461,0.2747,1.3833,0.8239c0.3376,0.55,0.5057,1.3196,0.5057,2.3083c0,0.9484-0.1745,1.6904-0.5215,2.2249
		c-0.3469,0.5339-0.8172,0.8012-1.41,0.8012c-0.5747,0-1.0399-0.2734-1.3944-0.8239c-0.3544-0.5492-0.532-1.2962-0.532-2.2413
		C21.1623,27.5721,21.3399,26.8239,21.6943,26.2582z"/>
	<path d="M28.6253,4.165c-13.5996,0-24.625,11.0234-24.625,24.623c0,13.5997,11.0254,24.625,24.625,24.625
		c13.5986,0,24.624-11.0253,24.624-24.625C53.2493,15.1883,42.2239,4.165,28.6253,4.165z M32.5206,20.3548h9.5157
		c0.3502,0,0.9708,0.4769,0.9708,1.142l-8.3366,5.6205c-0.051,0.0161-0.1618,0.0148-0.2127,0l-1.9371-1.2197V20.3548z
		 M31.241,42.6836L14.7447,39.225V17.5401l16.4963-3.193V42.6836z M43.0081,33.9247c0,1.1091-0.7099,1.5741-1.5081,1.5741h-8.9804
		v-7.5329h0.001l1.7679,1.2144c0.2489,0.1829,0.549,0,0.549,0c-0.2991,0.1829,8.1705-5.4429,8.1705-5.4429V33.9247z"/>
</g>
</svg>
