<?xml version="1.0" encoding="utf-8"?>
<!-- Generator: Adobe Illustrator 19.2.0, SVG Export Plug-In . SVG Version: 6.00 Build 0)  -->
<svg version="1.1" id="Layer_1" xmlns="http://www.w3.org/2000/svg" xmlns:xlink="http://www.w3.org/1999/xlink" x="0px" y="0px"
	 width="56.6934px" height="56.6934px" viewBox="0 0 56.6934 56.6934" style="enable-background:new 0 0 56.6934 56.6934;"
	 xml:space="preserve">
<g>
	<path d="M29.2066,4.3736c-13.5996,0-24.625,11.0234-24.625,24.623c0,13.5997,11.0254,24.625,24.625,24.625
		c13.5986,0,24.624-11.0253,24.624-24.625C53.8306,15.397,42.8052,4.3736,29.2066,4.3736z M42.9249,37.5029
		c0,3.0306-2.4568,5.4875-5.4875,5.4875H20.9748c-3.0306,0-5.4875-2.4568-5.4875-5.4875V21.0403
		c0-3.0306,2.4568-5.4875,5.4875-5.4875h16.4626c3.0306,0,5.4875,2.4568,5.4875,5.4875V37.5029z"/>
	<path d="M29.1194,22.1379h-5.4008v14.2675h2.9495v-5.2135h2.7702c2.83,0,5.2414-0.5373,5.2414-4.5768
		C34.6797,22.4164,32.0889,22.1379,29.1194,22.1379z M28.5216,28.7443h-1.8535v-4.1589h2.0328c2.4712,0,2.9894,0.2985,2.9894,1.9103
		C31.6903,28.5056,30.8931,28.7443,28.5216,28.7443z"/>
</g>
</svg>
