<?xml version="1.0" encoding="utf-8"?>
<!-- Generator: Adobe Illustrator 19.2.1, SVG Export Plug-In . SVG Version: 6.00 Build 0)  -->
<svg version="1.1" id="Layer_1" xmlns="http://www.w3.org/2000/svg" xmlns:xlink="http://www.w3.org/1999/xlink" x="0px" y="0px"
	 width="56.6934px" height="56.6934px" viewBox="0 0 56.6934 56.6934" style="enable-background:new 0 0 56.6934 56.6934;"
	 xml:space="preserve">
<g>
	<path d="M36.258,25.4328c0-3.8948-3.1572-7.0519-7.0519-7.0519c-0.5587,0-1.1019,0.0669-1.6231,0.1899
		c0.9453,0.4636,1.5977,1.4324,1.5977,2.556c0,1.5729-1.275,2.8481-2.8481,2.8481c-1.514,0-2.7491-1.1827-2.8394-2.6742
		c-0.8413,1.1614-1.339,2.5883-1.339,4.1321c0,3.8948,3.1572,7.0521,7.0519,7.0521C33.1008,32.4849,36.258,29.3276,36.258,25.4328z"
		/>
	<path d="M29.2061,18.3809c-0.5587,0-1.1019,0.0669-1.6231,0.1899c0.9453,0.4636,1.5977,1.4324,1.5977,2.556
		c0,1.5729-1.275,2.8481-2.8481,2.8481c-1.514,0-2.7491-1.1827-2.8394-2.6742c-0.8413,1.1614-1.339,2.5883-1.339,4.1321
		c0,3.8948,3.1572,7.0521,7.0519,7.0521c3.8947,0,7.0519-3.1572,7.0519-7.0521C36.258,21.538,33.1008,18.3809,29.2061,18.3809z"/>
	<path d="M29.2067,4.3736c-13.5995,0-24.625,11.0234-24.625,24.623s11.0255,24.625,24.625,24.625
		c13.5985,0,24.6239-11.0254,24.6239-24.625S42.8052,4.3736,29.2067,4.3736z M29.2061,43.5337
		c-2.3281,0-11.6225-9.4971-11.6225-18.1392c0-6.4192,5.2036-11.6227,11.6227-11.6227c6.4192,0,11.6225,5.2035,11.6225,11.6227
		C40.8288,34.0369,31.5342,43.5337,29.2061,43.5337z"/>
</g>
</svg>
