<?xml version="1.0" encoding="utf-8"?>
<!-- Generator: Adobe Illustrator 19.1.0, SVG Export Plug-In . SVG Version: 6.00 Build 0)  -->
<svg version="1.1" id="Layer_1" xmlns="http://www.w3.org/2000/svg" xmlns:xlink="http://www.w3.org/1999/xlink" x="0px" y="0px"
	 viewBox="-91 49.217 56.693 56.693" enable-background="new -91 49.217 56.693 56.693" xml:space="preserve">
<g>
	<path d="M-48.8592,90.7086c-5.6671-3.3961-12.2526-5.0914-19.6416-5.0914c-4.3145,0-8.4682,0.5428-12.6389,1.4931
		c-1.0185,0.1948-1.8369,0.9003-1.8369,2.32c0,1.1027,0.8552,2.1222,2.1376,2.1222c0.4156,0,1.1116-0.214,1.6644-0.3342
		c3.4013-0.7078,7.0378-1.1707,10.651-1.1707c6.4764,0,12.5782,1.5559,17.4726,4.5167c0.5103,0.3108,0.8834,0.5001,1.4293,0.5001
		c1.1105,0,2.1002-0.8939,2.1002-2.1115C-47.5215,91.7037-48.0159,91.2014-48.8592,90.7086z"/>
	<path d="M-44.8524,80.8144c-6.7223-4.0229-15.2728-6.2243-24.1119-6.2243c-5.642,0-9.518,0.8041-13.3141,1.8465
		c-1.4042,0.3959-2.1003,1.3845-2.1003,2.8203c0,1.4639,1.1855,2.6473,2.6377,2.6473c0.6157,0,0.9849-0.1948,1.6432-0.3756
		c3.0549-0.8142,6.7451-1.4124,11.0213-1.4124c8.3367,0,15.9498,2.1658,21.4429,5.4255c0.4974,0.2895,0.9588,0.5853,1.6915,0.5853
		c1.4676,0,2.6319-1.1813,2.6319-2.6436C-43.3103,82.2809-43.7254,81.4613-44.8524,80.8144z"/>
	<path d="M-40.3075,69.5026c-7.6205-4.4757-18.0527-6.5153-27.9682-6.5153c-5.8411,0-11.2139,0.6608-16.0275,2.0789
		c-1.227,0.3624-2.3641,1.3926-2.3641,3.2279c0,1.8012,1.3819,3.2261,3.1831,3.2261c0.621,0,1.2409-0.2457,1.7315-0.3693
		c4.2601-1.1558,8.9108-1.6213,13.4897-1.6213c9.1733,0,18.6583,2.0183,24.7702,5.683c0.6445,0.3528,1.0526,0.5199,1.7401,0.5199
		c1.7054,0,3.1853-1.3229,3.1853-3.1635C-38.5675,70.9616-39.2806,70.0842-40.3075,69.5026z"/>
</g>
</svg>
