<?xml version="1.0" encoding="utf-8"?>
<!-- Generator: Adobe Illustrator 19.1.0, SVG Export Plug-In . SVG Version: 6.00 Build 0)  -->
<svg version="1.1" id="Layer_1" xmlns="http://www.w3.org/2000/svg" xmlns:xlink="http://www.w3.org/1999/xlink" x="0px" y="0px"
	 viewBox="-91 49.217 56.693 56.693" enable-background="new -91 49.217 56.693 56.693" xml:space="preserve">
<g>
	<path d="M-60.4525,73.6114l3.3446,1.5579l4.9854-1.4877v-3.4603c-0.1762-5.8875-4.9892-10.6108-10.9206-10.6108
		c-5.91,0-10.7103,4.6887-10.9208,10.5469v15.8059c0,1.4304-1.1599,2.5907-2.5905,2.5907c-1.4308,0-2.5908-1.1603-2.5908-2.5907
		v-6.6987h-8.3747c0,0,0,6.7098,0,6.788c0,6.044,4.8992,10.9428,10.9431,10.9428c5.9908,0,10.8463-4.8152,10.9308-10.7852
		l0.0121-15.6118c0-1.431,1.16-2.5906,2.5907-2.5906c1.4306,0,2.5906,1.1596,2.5906,2.5906V73.6114z"/>
	<path d="M-46.9411,79.2644v7.0113c0,1.4308-1.1599,2.5908-2.5907,2.5908c-1.4307,0-2.5907-1.16-2.5907-2.5908v-6.8773
		l-4.9854,1.4881l-3.3446-1.558V86.15c0.0524,5.998,4.9322,10.8452,10.9432,10.8452c6.0436,0,10.9431-4.8988,10.9431-10.9428
		c0-0.0782,0-6.788,0-6.788H-46.9411z"/>
</g>
</svg>
