<?xml version="1.0" encoding="utf-8"?>
<!-- Generator: Adobe Illustrator 19.2.1, SVG Export Plug-In . SVG Version: 6.00 Build 0)  -->
<svg version="1.1" id="Layer_1" xmlns="http://www.w3.org/2000/svg" xmlns:xlink="http://www.w3.org/1999/xlink" x="0px" y="0px"
	 width="56.6934px" height="56.6934px" viewBox="0 0 56.6934 56.6934" style="enable-background:new 0 0 56.6934 56.6934;"
	 xml:space="preserve">
<path d="M28.5557,4.0694c-13.5995,0-24.625,11.0234-24.625,24.623c0,13.5997,11.0255,24.625,24.625,24.625
	c13.5986,0,24.624-11.0253,24.624-24.625C53.1798,15.0928,42.1544,4.0694,28.5557,4.0694z M28.5398,43.9343
	c-8.095,0-14.7147-6.3113-15.21-14.2814h10.9863v2.6664c0,0.2476,0.2008,0.4485,0.4484,0.4485h7.3105
	c0.2477,0,0.4484-0.2009,0.4484-0.4485v-7.3105c0-0.2477-0.2007-0.4484-0.4484-0.4484h-7.3105
	c-0.2476,0-0.4484,0.2007-0.4484,0.4484v2.6663H13.3335c0.524-7.9423,7.1312-14.2226,15.2063-14.2226
	c8.4174,0,15.241,6.8236,15.241,15.2409C43.7808,37.1108,36.9572,43.9343,28.5398,43.9343z"/>
</svg>
