<?xml version="1.0" encoding="utf-8"?>
<!-- Generator: Adobe Illustrator 19.2.1, SVG Export Plug-In . SVG Version: 6.00 Build 0)  -->
<svg version="1.1" id="Layer_1" xmlns="http://www.w3.org/2000/svg" xmlns:xlink="http://www.w3.org/1999/xlink" x="0px" y="0px"
	 width="56.7px" height="56.7px" viewBox="0 0 56.7 56.7" style="enable-background:new 0 0 56.7 56.7;" xml:space="preserve">
<g transform="translate(0.000000,950.000000) scale(0.100000,-0.100000)">
	<path d="M113.3835,9464.4268c-9.5542-1.0557-20.323-4.4873-29.771-9.3965c-22.2234-11.7178-38.7445-34.5215-43.126-59.6475
		c-0.9507-5.3311-1.0033-12.5098-1.0033-178.415v-172.873l1.2147-5.3838c7.601-34.3633,31.8819-58.6455,66.2458-66.2461
		l5.384-1.2139h173.6645h173.6653l5.384,1.2139c34.363,7.6006,58.6448,31.8828,66.2458,66.2461l1.2138,5.3838v172.873
		c0,165.9053-0.0526,173.084-1.0023,178.415c-1.32,7.707-3.9588,15.4668-7.9713,23.4893
		c-12.5096,25.1797-37.636,42.5986-65.823,45.6602C451.2644,9465.2188,119.6121,9465.165,113.3835,9464.4268z M301.986,9376.6436
		c18.1584-2.2695,32.8326-6.6504,48.9327-14.5156c15.8352-7.7598,25.9698-15.0967,39.3776-28.4512
		c12.5631-12.6162,19.531-22.1699,26.9207-37.0029c10.2935-20.6924,16.1528-45.29,17.1552-72.3691
		c0.3701-9.2363,0.1062-11.2959-2.0058-13.9346c-4.0114-5.1211-12.8272-4.2754-15.8353,1.4775
		c-0.9507,1.9004-1.2147,3.5361-1.5313,10.9268c-0.528,11.3486-1.319,18.6855-2.9029,27.4482
		c-6.2285,34.3633-22.6979,61.8115-48.9854,81.501c-21.9058,16.4688-44.5511,24.4932-74.2159,26.2344
		c-10.0295,0.5811-11.7713,0.9502-14.0409,2.6924c-4.2238,3.3252-4.4341,11.1367-0.3701,14.7793
		c2.4811,2.2705,4.2228,2.5869,12.8272,2.3232C291.7987,9377.5947,298.3965,9377.0664,301.986,9376.6436z M181.3184,9370.9434
		c1.8479-0.6338,4.6982-2.1113,6.3347-3.167c10.0286-6.6514,37.9525-42.3867,47.0849-60.2285
		c5.2252-10.1875,6.9669-17.7363,5.3314-23.3311c-1.6901-6.0176-4.4868-9.1855-16.9973-19.2676
		c-5.0147-4.0635-9.7129-8.2334-10.4513-9.3428c-1.9005-2.7451-3.4318-8.1289-3.4318-11.9297
		c0.0536-8.8145,5.7541-24.8086,13.2499-37.1084c5.8057-9.5537,16.2044-21.7998,26.4979-31.1953
		c12.0878-11.0859,22.7505-18.6338,34.7857-24.5986c15.466-7.7061,24.915-9.6592,31.8302-6.4404
		c1.7417,0.792,3.5887,1.8486,4.1701,2.3223c0.527,0.4756,4.592,5.4375,9.0262,10.9268
		c8.5508,10.7695,10.5039,12.5107,16.3632,14.5166c7.4432,2.5332,15.0442,1.8477,22.6978-2.0586
		c5.8067-3.0088,18.4751-10.874,26.6567-16.5742c10.7679-7.5488,33.7823-26.3408,36.8976-30.0889
		c5.4892-6.7559,6.4399-15.4121,2.7441-24.9678c-3.9062-10.0811-19.1083-28.9785-29.7184-37.0547
		c-9.6067-7.2852-16.4158-10.0811-25.3894-10.5039c-7.3896-0.3691-10.4513,0.2637-19.9003,4.1699
		c-74.1107,30.5625-133.2834,76.1689-180.263,138.8262c-24.5448,32.7266-43.2312,66.668-56.0058,101.876
		c-7.4422,20.5332-7.8115,29.4541-1.6891,39.959c2.6398,4.4336,13.8831,15.4131,22.0647,21.5361
		c13.6191,10.1348,19.9003,13.8828,24.915,14.9385C171.5529,9372.8965,177.5173,9372.3154,181.3184,9370.9434z M305.6283,9338.374
		c32.0415-4.6973,56.8503-19.583,73.1082-43.7588c9.1323-13.6182,14.8329-29.6123,16.786-46.7676
		c0.6858-6.2822,0.6858-17.7363-0.0526-19.6367c-0.6868-1.7949-2.9038-4.2227-4.8044-5.2256
		c-2.0584-1.0557-6.4389-0.9502-8.8674,0.3164c-4.065,2.0586-5.2787,5.332-5.2787,14.1992c0,13.6719-3.537,28.082-9.6593,39.2725
		c-6.9679,12.7744-17.1024,23.3311-29.4542,30.6689c-10.61,6.334-26.2874,11.0322-40.5924,12.1934
		c-5.1735,0.4229-8.0238,1.4775-9.9769,3.748c-3.0081,3.4307-3.3256,8.0762-0.792,11.9287
		C288.7897,9339.5889,293.0125,9340.2754,305.6283,9338.374z M316.8716,9298.5215c10.3987-2.2168,18.3699-6.1758,25.179-12.5635
		c8.7622-8.2861,13.5664-18.3164,15.6773-32.7266c1.4252-9.3955,0.8446-13.0908-2.4811-16.1523
		c-3.1141-2.8506-8.8672-2.9561-12.3517-0.2637c-2.5337,1.9004-3.3257,3.9062-3.9062,9.3428
		c-0.6858,7.2314-1.953,12.2988-4.1166,16.9971c-4.6456,9.9766-12.8272,15.1494-26.6567,16.8389
		c-6.4935,0.792-8.4465,1.5303-10.5575,4.0107c-3.8536,4.5928-2.3759,12.0361,2.9555,14.7803
		c2.0067,1.0029,2.8512,1.1094,7.2845,0.8447C310.643,9299.4717,314.708,9298.9971,316.8716,9298.5215z"/>
</g>
</svg>
