<?xml version="1.0" encoding="utf-8"?>
<!-- Generator: Adobe Illustrator 19.1.0, SVG Export Plug-In . SVG Version: 6.00 Build 0)  -->
<svg version="1.1" id="Layer_1" xmlns="http://www.w3.org/2000/svg" xmlns:xlink="http://www.w3.org/1999/xlink" x="0px" y="0px"
	 viewBox="-91 49.217 56.693 56.693" enable-background="new -91 49.217 56.693 56.693" xml:space="preserve">
<path fill="#231F20" d="M-62.6662,54.3363c-13.5995,0-24.6249,11.0234-24.6249,24.623c0,13.5997,11.0254,24.625,24.6249,24.625
	c13.5986,0,24.624-11.0253,24.624-24.625C-38.0422,65.3597-49.0676,54.3363-62.6662,54.3363z M-56.5776,69.3371
	c-1.1614,0-1.9828,1.1047-1.9828,3.2291c0,4.3341,2.7479,6.8267,6.3168,6.8267c0.6345,0,1.3394-0.0741,2.0681-0.2421v3.3675
	c-1.1894,0.2687-2.3837,0.3829-3.3779,0.3856c-2.3683,5.0041-6.6411,9.2761-8.0641,10.0853
	c-0.9065,0.5101-1.7601,0.5384-2.7515-0.0565c-1.7526-1.0458-8.381-6.4918-10.6052-23.5956h4.8141
	c1.2105,10.2697,4.1605,15.5322,7.4236,19.4769c1.7986-1.7994,3.5231-4.1874,4.8784-6.8986
	c-3.2231-1.6353-5.1777-5.2244-5.1777-9.4056c0-4.2207,2.4362-7.4216,6.5999-7.4216c4.0508,0,6.2604,2.521,6.2604,6.855
	c0,1.6106-0.3471,3.4467-0.9857,4.8644c-3.0074,0.5888-4.1072-1.3298-4.1072-1.3298c0.2261-0.7414,0.5324-1.9946,0.5324-3.1382
	C-54.7361,70.3285-55.4727,69.3371-56.5776,69.3371z"/>
</svg>
