<?xml version="1.0" encoding="utf-8"?>
<!-- Generator: Adobe Illustrator 19.1.0, SVG Export Plug-In . SVG Version: 6.00 Build 0)  -->
<svg version="1.1" id="Layer_1" xmlns="http://www.w3.org/2000/svg" xmlns:xlink="http://www.w3.org/1999/xlink" x="0px" y="0px"
	 viewBox="-91 49.217 56.693 56.693" enable-background="new -91 49.217 56.693 56.693" xml:space="preserve">
<g>
	<path fill="#231F20" d="M-62.4995,54.3364c-13.5996,0-24.625,11.0234-24.625,24.623c0,13.5997,11.0254,24.625,24.625,24.625
		c13.5986,0,24.624-11.0253,24.624-24.625C-37.8755,65.3597-48.9009,54.3364-62.4995,54.3364z M-75.6334,84.6872l-2.3559-9.1161
		c-0.1428-0.5614-0.2672-0.7681-0.7022-1.0036c-0.71-0.3864-1.8831-0.7479-2.9155-0.9722l0.0698-0.3317h5.0284
		c0.6408,0,1.217,0.4258,1.3635,1.1643l1.2444,6.611l3.0755-7.7753h3.1038l-4.7881,11.4236H-75.6334z M-68.8977,84.6872
		l2.4444-11.4236h2.9545l-2.4437,11.4236H-68.8977z M-60.6262,84.866c-1.3223-0.0134-2.5964-0.2896-3.2863-0.607l0.5359-2.503
		c0.6859,0.3206,1.5488,0.7448,3.0343,0.7218c0.8503-0.0134,1.7598-0.3513,1.7688-1.1181c0.0049-0.5009-0.3823-0.8599-1.533-1.42
		c-1.1199-0.5461-2.6073-1.4637-2.5868-3.1085c0.0164-2.2234,2.072-3.7765,4.993-3.7765c1.1389,0,2.053,0.2482,2.7652,0.5073
		l-0.5198,2.4221c-1.3229-0.6098-2.4906-0.567-2.9132-0.5111c-0.854,0.1114-1.2441,0.5468-1.2537,0.9557
		c-0.0285,1.3477,4.153,1.5143,4.1406,4.5287C-55.4914,83.333-57.5218,84.866-60.6262,84.866z M-47.7683,84.6872l-0.3572-1.7058
		h-3.7905l-0.6172,1.7058h-3.1016l4.4335-10.5854c0.2129-0.5077,0.6908-0.8382,1.2578-0.8382h2.5235l2.3857,11.4236H-47.7683z"/>
	<polygon fill="#231F20" points="-51.0657,80.6395 -48.6142,80.6395 -49.5097,76.35 	"/>
</g>
</svg>
