<?xml version="1.0" encoding="utf-8"?>
<!-- Generator: Adobe Illustrator 19.2.1, SVG Export Plug-In . SVG Version: 6.00 Build 0)  -->
<svg version="1.1" id="Layer_1" xmlns="http://www.w3.org/2000/svg" xmlns:xlink="http://www.w3.org/1999/xlink" x="0px" y="0px"
	 width="56.6934px" height="56.6934px" viewBox="0 0 56.6934 56.6934" style="enable-background:new 0 0 56.6934 56.6934;"
	 xml:space="preserve">
<g>
	<path d="M30.2095,29.7295c-0.6036-0.0027-1.1092,0.5151-1.0882,1.1149c0.0198,0.573,0.5025,1.0365,1.0806,1.0372
		c0.5822,0.0006,1.0616-0.4551,1.0837-1.03C31.3088,30.2427,30.8192,29.7319,30.2095,29.7295z"/>
	<path d="M19.5497,21.4479c-0.7269-0.0214-1.3248,0.5342-1.346,1.2505c-0.0215,0.726,0.5338,1.3077,1.266,1.3263
		c0.7258,0.0184,1.3343-0.5378,1.3611-1.2448C20.8574,22.0901,20.2597,21.4686,19.5497,21.4479z"/>
	<path d="M27.8005,24.0306c0.7347-0.0089,1.2919-0.5764,1.2849-1.3094c-0.006-0.7195-0.5941-1.2871-1.3193-1.2739
		c-0.7126,0.0131-1.3148,0.6201-1.3021,1.3126C26.4771,23.4778,27.0677,24.0394,27.8005,24.0306z"/>
	<path d="M36.9129,29.7319c-0.5649-0.0039-1.0449,0.4585-1.0679,1.0293c-0.0245,0.6104,0.45,1.1116,1.054,1.1132
		c0.5842,0.0018,1.0458-0.4399,1.0671-1.0214C37.9888,30.2412,37.5141,29.7361,36.9129,29.7319z"/>
	<path d="M28.4389,3.9229c-13.5995,0-24.625,11.0234-24.625,24.623c0,13.5997,11.0255,24.625,24.625,24.625
		c13.5986,0,24.624-11.0253,24.624-24.625C53.0629,14.9463,42.0375,3.9229,28.4389,3.9229z M20.75,34.062
		c-0.3572-0.03-0.7809,0.0127-1.0835,0.1833c-1.0041,0.5667-1.9667,1.2063-3.1077,1.9194c0.2094-0.9468,0.3448-1.7759,0.5847-2.5735
		c0.1764-0.5862,0.0947-0.9124-0.4453-1.2941c-3.4671-2.4479-4.9285-6.1111-3.8348-9.8827c1.0119-3.489,3.4968-5.605,6.8732-6.708
		c4.6086-1.5054,9.7877,0.0302,12.5901,3.6891c1.0121,1.3217,1.6328,2.8051,1.7968,4.5595
		c-2.8882,0.1509-5.3997,1.0264-7.4388,3.0045c-2.0601,1.9985-3.0005,4.4473-2.7435,7.4831
		C22.8123,34.303,21.7841,34.1491,20.75,34.062z M41.0731,38.8008c-0.8903,0.79-1.2108,1.4402-0.6395,2.4817
		c0.1054,0.1921,0.1175,0.4357,0.1786,0.6785c-0.9146-0.4072-1.7534-1.0181-2.6467-1.1115
		c-0.8897-0.0929-1.825,0.4203-2.7559,0.5155c-2.8355,0.2902-5.3757-0.5001-7.4704-2.4371
		c-3.9837-3.6847-3.4145-9.3345,1.1945-12.354c4.0963-2.6837,10.1038-1.789,12.9919,1.9347
		C44.446,31.7578,44.1498,36.071,41.0731,38.8008z"/>
</g>
</svg>
