<?xml version="1.0" encoding="utf-8"?>
<!-- Generator: Adobe Illustrator 19.2.0, SVG Export Plug-In . SVG Version: 6.00 Build 0)  -->
<svg version="1.1" id="Layer_1" xmlns="http://www.w3.org/2000/svg" xmlns:xlink="http://www.w3.org/1999/xlink" x="0px" y="0px"
	 width="56.6934px" height="56.6934px" viewBox="0 0 56.6934 56.6934" style="enable-background:new 0 0 56.6934 56.6934;"
	 xml:space="preserve">
<style type="text/css">
	.st0{fill:#231F20;}
</style>
<g>
	<path class="st0" d="M24.1987,28.6596c-1.6729-0.8579-4.0029-1.7495-6.5557-1.7495c-0.29,0-0.5781,0.0093-0.8701,0.0342
		c-2.5596,0.2123-4.8916,0.8672-6.5293,1.4438c-0.4834,0.1748-0.9824,0.3643-1.4941,0.5733L4.2592,44.5273
		c3.3926-1.3677,6.1348-1.9146,8.4385-1.9146c3.7979,0,6.4318,1.4669,8.9171,3.1216c0.9219-3.125,4.0537-13.8169,4.6485-15.853
		C25.5903,29.4638,24.9145,29.0449,24.1987,28.6596z"/>
	<path class="st0" d="M28.9467,31.8491l-4.4765,15.5415c-0.0069-0.0039,5.2334,3.2255,9.164,3.2255
		c2.4873,0,5.461-0.6088,9.1817-2.144l4.3144-15.0806c-3.2734,1.1729-6.0937,1.6129-8.4775,1.6129
		C33.4643,35.0043,30.309,32.9365,28.9467,31.8491z"/>
	<path class="st0" d="M18.4819,23.1591c3.6406,0.0376,6.2197,1.4912,8.6201,3.083c0.919-3.1152,3.6485-12.4717,4.5714-15.6289
		V10.602c0,0-3.2178-1.9258-5.4551-2.4971c-1.0683-0.2524-2.2763-0.4116-3.6133-0.4116c-0.0185,0-0.0361,0-0.0517,0
		c-2.2754,0.0435-5.002,0.5937-8.3535,1.9619L9.7768,25.1855c3.4434-1.4043,6.2364-2.0264,8.584-2.0264
		C18.4028,23.1591,18.4419,23.1591,18.4819,23.1591z"/>
	<path class="st0" d="M44.0991,15.8256c-4.918,0-8.1611-2.0928-9.5957-3.2085l-4.5361,15.6973
		c0.0117,0.0132,0.0322,0.0244,0.0468,0.0337c2.4951,1.668,5.7412,3.0172,9.6524,3.0172c2.5859,0,5.4609-0.5884,8.6015-2.0699
		c0-0.0058,0-0.0156,0-0.0209c0.0069,0,0.0166-0.0059,0.0284-0.0098L52.77,13.8539C49.4663,15.2963,46.5727,15.8256,44.0991,15.8256
		z"/>
</g>
</svg>
