<?xml version="1.0" encoding="utf-8"?>
<!-- Generator: Adobe Illustrator 19.1.0, SVG Export Plug-In . SVG Version: 6.00 Build 0)  -->
<svg version="1.1" id="Layer_1" xmlns="http://www.w3.org/2000/svg" xmlns:xlink="http://www.w3.org/1999/xlink" x="0px" y="0px"
	 viewBox="-91 49.217 56.693 56.693" enable-background="new -91 49.217 56.693 56.693" xml:space="preserve">
<g>
	<path fill="#231F20" d="M-70.8859,77.9901c-0.3051-0.2095-0.7128-0.2598-1.1782-0.1467c-0.3064,0.0719-0.5663,0.2342-0.7532,0.4701
		l-0.106,0.164c-0.1068,0.175-0.1415,0.2981-0.1758,0.4405c-0.0266,0.1307-0.0322,0.2208-0.0164,0.2663h2.7613
		c0.0004-0.052-0.0048-0.1432-0.0272-0.2984C-70.4329,78.49-70.6072,78.1808-70.8859,77.9901z"/>
	<path fill="#231F20" d="M-58.9537,77.7837c-0.5543,0.1154-0.8681,0.4499-0.9478,1.8851c0.0003,0.0048-0.0131,0.3379-0.0132,0.347
		c0,0,0.0093,0.3084,0.0134,0.4081l0.0017,0.0338c0.054,1.1508,0.4342,1.664,1.233,1.664c0.8752,0,1.2057-0.5764,1.2192-2.1264
		c0.0159-1.1198-0.149-1.7797-0.5192-2.0772C-58.2029,77.7278-58.5259,77.6834-58.9537,77.7837z"/>
	<path fill="#231F20" d="M-62.6661,54.3363c-13.5996,0-24.625,11.0234-24.625,24.623c0,13.5997,11.0254,24.625,24.625,24.625
		c13.5986,0,24.624-11.0253,24.624-24.625C-38.0422,65.3597-49.0676,54.3363-62.6661,54.3363z M-54.5358,75.7336
		c0.1438-0.2266,0.364-0.3519,0.605-0.3408c0.1488,0.0017,0.1613,0.002,2.7458,1.0683l-0.001,0.0023
		c0.0681,0.0242,0.2379,0.0935,0.7199,0.2899c0.3129,0.1171,0.5123,0.4453,0.4924,0.8154
		c-0.0214,0.3629-0.2379,0.6488-0.5513,0.7289c-0.0604,0.0202-0.2633,0.085-1.0146,0.3248
		c-2.1692,0.6969-2.3701,0.7589-2.5005,0.7589c-0.0128,0-0.0249-0.0006-0.0381-0.0014c-0.2385-0.0083-0.4551-0.1521-0.5775-0.3851
		c-0.0763-0.1452-0.1327-0.3774-0.1677-0.6906C-54.9117,77.4501-54.8074,76.1701-54.5358,75.7336z M-75.511,77.47l-2.1,6.6028
		c-0.4419,1.4008-0.9308,1.7467-1.6786,1.8948c-0.2527,0.0514-0.4922,0.0767-0.7131,0.0767c-0.4785,0-0.869-0.1188-1.1171-0.3481
		c-0.2177-0.2021-0.3133-0.4655-0.2768-0.7623c0.0508-0.451,0.381-0.7582,0.8832-0.8202c0.0505-0.0017,0.4808,0.0085,0.4808,0.0085
		c0.1641,0.0099,0.3015-0.0386,0.4019-0.1321c0.0988-0.0938,0.1542-0.2371,0.1588-0.413c-0.0017,0-0.023-0.1285-0.023-0.1285
		c-0.0098-0.0537-0.0667-0.2026-0.0667-0.2026c-0.0337-0.0696-2.7053-5.5067-2.7323-5.5615
		c-0.2552-0.7363-0.0305-1.3076,0.5945-1.5449c0.4982-0.1976,0.9916,0.0483,1.1622,0.389l-0.0057,0.0029
		c0.0931,0.1614,0.4554,0.8455,2.0837,3.9214l1.0018-3.4019c0.2498-0.8557,0.6798-1.1871,1.3145-1.0131
		c0.274,0.0733,0.4748,0.2202,0.5967,0.4368C-75.402,76.7382-75.3903,77.0818-75.511,77.47z M-68.4462,80.5959
		c-0.1472,0.1594-0.3821,0.1918-0.6899,0.1918l-3.465,0.0026c-0.0935,0.062-0.0397,0.3473-0.0219,0.4411h-0.0009
		c0.0185,0.0548,0.0375,0.1307,0.0632,0.2339c0.1329,0.3513,0.4357,0.619,0.8259,0.7184c0.5244,0.1321,1.1243-0.0517,1.6447-0.5053
		c0.3817-0.3402,0.6071-0.4362,0.8939-0.3785c0.4232,0.0574,0.725,0.4365,0.725,0.9202c0,0.5627-0.662,1.548-2.4386,1.7979
		c-0.2222,0.0302-0.437,0.0449-0.6436,0.0449c-0.8788,0-1.6108-0.2694-2.1413-0.7932c-0.8569-0.8449-1.1864-2.3245-0.9529-4.2784
		c0.1945-1.6637,1.0477-2.6732,2.4671-2.919c1.1169-0.2012,2.0656-0.0352,2.742,0.4769c0.6376,0.4818,1.0256,1.2621,1.1223,2.2571
		C-68.2241,79.745-68.216,80.3387-68.4462,80.5959z M-65.2303,83.962c-0.1412,0.0665-0.2936,0.0997-0.4455,0.0997
		c-0.1467,0-0.2927-0.0309-0.4284-0.0935c-0.25-0.1143-0.4347-0.3243-0.5066-0.5758c-0.0027-0.0071-0.0064-0.0179-0.0539-0.3302
		l-0.0017-8.3806c0-0.4811,0.1331-0.7653,0.4449-0.9498c0.3133-0.1867,0.6758-0.2203,0.9943-0.0912l0.0004,0.0003
		c0.2605,0.1063,0.4517,0.3118,0.5118,0.5496l0.0044,0.0355c0.0027,0.0188,0.0527,0.3939,0.0527,0.3939l0.0013,8.3936
		C-64.6565,83.4521-64.8709,83.8068-65.2303,83.962z M-56.2105,80.7727c-0.1104,1.5082-0.5974,2.4092-1.579,2.921
		c-0.7793,0.4033-1.7527,0.442-2.4798,0.0978l-0.1816-0.0961l-0.0864-0.0582c-0.0424-0.0384-0.0919-0.0708-0.0919-0.0708
		l-0.0955-0.0637l-0.0348,0.1546l0.0139,0.2081l0.0003,1.4281l-0.0515,0.3717c-0.0746,0.2606-0.2609,0.4619-0.5157,0.5729
		c-0.1328,0.0577-0.2751,0.0861-0.4186,0.0861c-0.1722,0-0.3464-0.0409-0.5085-0.1227c-0.3549-0.1694-0.5286-0.4991-0.5286-1.0061
		v-8.2037c0-0.5206,0.1135-0.7781,0.4191-0.9506c0.5201-0.2973,1.1049-0.1324,1.3238,0.208l0.0618,0.0924l0.0737,0.1725
		l0.0665-0.0333c0.0161-0.0105,0.0732-0.0582,0.0732-0.0582c0.6868-0.4658,1.3814-0.602,2.197-0.4363
		C-56.6814,76.3503-55.9807,77.7821-56.2105,80.7727z M-54.8527,83.7153c-0.4992,0-0.8901-0.3911-0.8901-0.8904
		c0-0.4982,0.3909-0.8887,0.8901-0.8887c0.4908,0,0.8901,0.3987,0.8901,0.8887C-53.9626,83.316-54.3619,83.7153-54.8527,83.7153z
		 M-48.7094,80.7744c-0.0071,2.4958-0.0109,2.5072-0.059,2.6476c-0.0871,0.2325-0.2805,0.3845-0.546,0.4328
		c-0.0463,0.008-0.0994,0.0117-0.1577,0.0117c-0.7714,0-2.5075-0.6608-2.9085-1.1371c-0.1005-0.121-0.16-0.2566-0.1729-0.3928
		c-0.0106-0.0938,0.0015-0.1904,0.0361-0.2845c0.0487-0.1409,0.0551-0.1594,1.8641-2.2824l0.0435-0.0511
		c0.1208-0.1427,0.459-0.5443,0.459-0.5443c0.2079-0.2603,0.5806-0.3481,0.9258-0.2148c0.3373,0.1299,0.5421,0.424,0.5215,0.7491
		C-48.7039,79.7399-48.7094,80.7744-48.7094,80.7744z M-49.2265,75.8813c-0.0735,0.0233-0.1462,0.0347-0.2183,0.0347
		c-0.3236,0-0.6312-0.2328-0.9169-0.6954c-0.3213-0.5056-3.1501-4.957-3.2254-5.1119c-0.0685-0.2512,0.0056-0.4982,0.188-0.688
		c0.5017-0.5178,3.1008-1.2488,3.812-1.072c0.2668,0.0665,0.458,0.2441,0.5247,0.4871l0.003,0.0137
		c0.0397,0.2296,0.3488,4.8237,0.3936,5.8522C-48.6339,75.3601-48.8225,75.7571-49.2265,75.8813z M-47.7787,75.8969
		c0.028-0.0361,0.6322-0.8591,0.6322-0.8591c1.4506-1.984,1.4806-2.0235,1.6048-2.1045c0.2034-0.1373,0.451-0.1484,0.6948-0.0302
		c0.5907,0.2879,1.7468,1.994,1.8195,2.6846l0.0013,0.0114l-0.0004,0.0267c0.0159,0.26-0.0857,0.4834-0.2866,0.6201
		c-0.1243,0.0807-0.1498,0.0972-2.8519,0.7517c0,0-0.7609,0.2343-1.1209,0.1839c-0.1981-0.0495-0.3821-0.1802-0.5085-0.374
		C-47.9918,76.5052-47.9855,76.1479-47.7787,75.8969z M-44.9642,82.6726c-0.0986,0.0395-0.1961,0.0588-0.2899,0.0588
		c-0.1445,0-0.2801-0.0461-0.3968-0.1376c-0.1203-0.0941-0.181-0.1813-1.5949-2.478l-0.4041-0.6576
		c-0.1855-0.2825-0.1545-0.6662,0.0796-0.9515c0.2266-0.2791,0.5691-0.3834,0.8721-0.2672c0.043,0.0165,0.6276,0.2098,1.0104,0.3359
		c2.3761,0.781,2.3856,0.7881,2.5017,0.8748c0.1912,0.1529,0.2781,0.3905,0.2418,0.6548
		C-43.041,80.7699-44.3435,82.4248-44.9642,82.6726z"/>
</g>
</svg>
