<?xml version="1.0" encoding="utf-8"?>
<!-- Generator: Adobe Illustrator 19.1.0, SVG Export Plug-In . SVG Version: 6.00 Build 0)  -->
<svg version="1.1" id="Layer_1" xmlns="http://www.w3.org/2000/svg" xmlns:xlink="http://www.w3.org/1999/xlink" x="0px" y="0px"
	 viewBox="-91 49.217 56.693 56.693" enable-background="new -91 49.217 56.693 56.693" xml:space="preserve">
<g>
	<path d="M-67.9554,85.2929c0.9744-0.2491,1.6471-1.1379,1.7138-2.266c0.0618-1.1502-0.5579-2.1705-1.5305-2.5345
		c-1.4982-0.6104-2.0261-0.826-2.2377-0.9011l0.0031-0.0071c-8.0338-3.3146-8.0726-3.3154-8.5351-3.3207
		c-0.7496-0.0344-1.4338,0.3552-1.8807,1.0592c-0.8441,1.3569-1.1683,5.3358-0.894,7.9904c0.1086,0.9736,0.284,1.6953,0.5212,2.1467
		c0.3803,0.7244,1.0539,1.1714,1.795,1.197c0.0411,0.0026,0.0786,0.0044,0.1184,0.0044c0.4055,0,1.03-0.1926,7.7726-2.3587
		C-68.7738,85.557-68.1431,85.3556-67.9554,85.2929z"/>
	<path d="M-63.9142,87.3504c-1.0729-0.4143-2.2315-0.1414-2.8777,0.6678c0,0-1.0513,1.2483-1.4267,1.6918l-0.1352,0.159
		c-5.6229,6.5991-5.6428,6.6565-5.7943,7.0947c-0.1078,0.2924-0.1453,0.5928-0.1122,0.8843
		c0.0398,0.4232,0.2249,0.8445,0.5371,1.2209c1.2465,1.4806,6.6432,3.5345,9.0408,3.5345c0.1816,0,0.3463-0.0115,0.4903-0.0362
		c0.8251-0.1502,1.4263-0.6228,1.697-1.3455c0.1493-0.4364,0.1613-0.4717,0.1833-8.2298c0,0,0.0172-3.2156,0.0186-3.3128
		C-62.2291,88.6684-62.8656,87.7541-63.9142,87.3504z"/>
	<path d="M-63.3996,55.924l-0.0093-0.0424c-0.2072-0.7553-0.8013-1.3074-1.6307-1.5142
		c-2.2108-0.5495-10.2896,1.7227-11.8492,3.3322c-0.5672,0.5901-0.7973,1.3578-0.5844,2.1387
		c0.2341,0.4814,9.0272,14.3183,10.0258,15.8899c0.8878,1.4382,1.8441,2.1617,2.8499,2.1617c0.2239,0,0.4501-0.0353,0.6785-0.1078
		c1.2557-0.386,1.8423-1.6201,1.7429-3.667C-62.3152,70.9181-63.276,56.6377-63.3996,55.924z"/>
	<path d="M-57.8871,81.8238c1.119,0.1566,3.4841-0.5715,3.4841-0.5715c8.3995-2.0345,8.4785-2.0858,8.8651-2.3367
		c0.6246-0.4249,0.9404-1.1193,0.8909-1.9276l0.0013-0.0831l-0.004-0.0353c-0.2257-2.1467-3.8194-7.4498-5.6556-8.3447
		c-0.758-0.3675-1.5274-0.3331-2.16,0.0936c-0.386,0.2518-0.4792,0.3746-4.9882,6.5416c0,0-1.8781,2.5583-1.9651,2.6706
		c-0.6431,0.78-0.6625,1.8904-0.0494,2.8304C-59.0749,81.2637-58.5029,81.6701-57.8871,81.8238z"/>
	<path d="M-45.1431,88.876c-0.3608-0.2694-0.3904-0.2915-7.7762-2.7191c-1.1899-0.3922-3.0071-0.993-3.141-1.0442
		c-0.9417-0.3613-2.0062-0.0371-2.7108,0.8304c-0.7275,0.887-0.8237,2.0796-0.2473,2.9577l1.2562,2.0442
		c4.395,7.1389,4.5836,7.41,4.9576,7.7025c0.3627,0.2844,0.7841,0.4276,1.2333,0.4276c0.2915,0,0.5945-0.0601,0.9011-0.1829
		c1.9294-0.7703,5.978-5.9144,6.2789-7.9807C-44.2787,90.0898-44.5486,89.3513-45.1431,88.876z"/>
</g>
</svg>
