<?xml version="1.0" encoding="utf-8"?>
<!-- Generator: Adobe Illustrator 19.2.0, SVG Export Plug-In . SVG Version: 6.00 Build 0)  -->
<svg version="1.1" id="Layer_1" xmlns="http://www.w3.org/2000/svg" xmlns:xlink="http://www.w3.org/1999/xlink" x="0px" y="0px"
	 width="56.6934px" height="56.6934px" viewBox="0 0 56.6934 56.6934" style="enable-background:new 0 0 56.6934 56.6934;"
	 xml:space="preserve">
<g>
	<path d="M25.0889,26.3657c-3.1046,0.0809-2.9935,3.2294-2.9935,3.2294s-0.0495,3.2709,2.9984,3.2326
		c3.048-0.0384,2.9984-3.1655,2.9984-3.1655S28.1932,26.2847,25.0889,26.3657z"/>
	<path d="M34.9487,29.7971c0,0-3.1047-0.0994-2.9834,1.5541c0.1137,1.5494,2.0529,1.547,2.0529,1.547
		c3.479,0.0457,3.1238-3.1033,3.1238-3.1033L34.9487,29.7971z"/>
	<path d="M15.3906,26.3353c-2.7609,0.0007-2.8984,2.4473-2.8984,2.4473h5.6492C18.1415,28.7825,18.1415,26.3345,15.3906,26.3353z"/>
	<path d="M29.2066,4.1896c-13.5996,0-24.625,11.0234-24.625,24.623c0,13.5997,11.0254,24.625,24.625,24.625
		c13.5986,0,24.624-11.0253,24.624-24.625C53.8306,15.213,42.8052,4.1896,29.2066,4.1896z M37.3353,33.8185l-0.0811-1.1932
		c-0.7585,0.9608-1.7797,1.4966-3.5697,1.5067c-1.7898,0.0102-4.0774-0.7894-3.6844-3.3524c0.0034-0.0218,0.009-0.0421,0.013-0.0635
		c-0.4766,2.2268-2.293,3.4159-4.5166,3.4159c-2.5616,0-3.4382-1.4427-3.4382-1.4427l-0.0806,1.1461h-1.8792
		c0.0732-0.7854,0.0848-1.9736,0.0848-1.9736l-0.0062-1.93c-0.0056,0.1121-0.0129,0.1756-0.0129,0.1756h-7.7361
		c0,0,0.1084,2.7053,2.9009,2.7572c2.1722,0.0405,2.5632-1.4696,2.5632-1.4696l2.0082-0.004c0,0-0.215,2.7411-4.5797,2.7411
		c-5.0797,0-4.8445-4.3686-4.8445-4.3686c-0.0245-0.9699,0.162-4.7065,4.962-4.7057c4.0291,0.0008,4.665,2.9037,4.7372,4.307
		l-0.0248-7.7049h1.9349v4.8271c0,0,1.0383-1.4427,3.4517-1.4292c2.4138,0.0134,4.6519,1.645,4.5981,4.5708
		c-0.0065,0.3487-0.0416,0.6777-0.1016,0.9877c0.4806-1.9971,3.8621-2.1043,4.847-2.1093c0.5611-0.0028,2.2426-0.0076,2.2426-0.0076
		c0.0101-1.1832-0.3473-2.1454-2.3091-2.1825c-2.073-0.0393-2.2316,1.3229-2.2316,1.3229h-2.043
		c0.4147-2.9731,4.4093-2.609,4.4093-2.609c4.1666,0.1718,4.0752,2.4978,4.1261,3.4615c0.0434,0.8311,0.0047,2.0095,0,3.3291
		c-0.0055,1.3198,0.0405,1.987,0.0405,1.987L37.3353,33.8185z M42.9239,37.0513h-2.1705l1.719-3.2429l-4.4562-8.4272h2.2448
		l3.2833,6.5463l3.2902-6.5463h2.0294L42.9239,37.0513z"/>
</g>
</svg>
