<?xml version="1.0" encoding="utf-8"?>
<!-- Generator: Adobe Illustrator 19.2.0, SVG Export Plug-In . SVG Version: 6.00 Build 0)  -->
<svg version="1.1" id="Layer_1" xmlns="http://www.w3.org/2000/svg" xmlns:xlink="http://www.w3.org/1999/xlink" x="0px" y="0px"
	 width="56.6934px" height="56.6934px" viewBox="0 0 56.6934 56.6934" style="enable-background:new 0 0 56.6934 56.6934;"
	 xml:space="preserve">
<path d="M28.0681,4.1549c-13.6006,0-24.625,11.0234-24.625,24.623s11.0244,24.625,24.625,24.625s24.625-11.0254,24.625-24.625
	S41.6687,4.1549,28.0681,4.1549z M30.399,35.2503c-2.5519,3.5903-7.6752,4.6385-11.6721,3.1005
	c-4.0115-1.5281-6.8524-5.765-6.5144-10.085c0.0882-5.285,4.947-9.9136,10.232-9.7373c2.5323-0.1176,4.9128,0.9845,6.8524,2.5323
	c-0.8278,0.9404-1.6849,1.8466-2.6008,2.6939c-2.3315-1.6115-5.6475-2.0719-7.9789-0.2106
	c-3.3356,2.307-3.4874,7.7536-0.2792,10.2369c3.1201,2.8311,9.0173,1.4253,9.8794-2.9095c-1.9543-0.0294-3.9136,0-5.8679-0.0637
	c-0.0049-1.1657-0.0098-2.3315-0.0049-3.4972c3.267-0.0098,6.534-0.0147,9.8059,0.0098
	C32.4464,30.0633,32.0839,32.9826,30.399,35.2503z M44.4857,30.2299c-0.9747,0.0098-1.9494,0.0146-2.929,0.0245
	c-0.0098,0.9796-0.0147,1.9543-0.0196,2.929c-0.9747,0-1.9445,0-2.9193,0c-0.0098-0.9747-0.0098-1.9494-0.0196-2.9241
	c-0.9747-0.0098-1.9543-0.0196-2.929-0.0294c0-0.9698,0-1.9396,0-2.9144c0.9747-0.0098,1.9494-0.0146,2.929-0.0196
	c0.0049-0.9796,0.0147-1.9543,0.0245-2.929c0.9698,0,1.9396,0,2.9143,0c0.0049,0.9747,0.0098,1.9543,0.0196,2.929
	c0.9747,0.0098,1.9543,0.0098,2.929,0.0196C44.4857,28.2854,44.4857,29.26,44.4857,30.2299z"/>
</svg>
