<?xml version="1.0" encoding="utf-8"?>
<!-- Generator: Adobe Illustrator 19.1.0, SVG Export Plug-In . SVG Version: 6.00 Build 0)  -->
<svg version="1.1" id="Layer_1" xmlns="http://www.w3.org/2000/svg" xmlns:xlink="http://www.w3.org/1999/xlink" x="0px" y="0px"
	 viewBox="-91 49.217 56.693 56.693" enable-background="new -91 49.217 56.693 56.693" xml:space="preserve">
<path fill="#231F20" d="M-62.6661,54.3363c-13.5996,0-24.625,11.0234-24.625,24.623c0,13.5997,11.0254,24.625,24.625,24.625
	c13.5986,0,24.624-11.0253,24.624-24.625C-38.0422,65.3597-49.0676,54.3363-62.6661,54.3363z M-66.182,71.7005l10.5885,6.2452
	l-1.3339,2.2613l-10.5891-6.2455L-66.182,71.7005z M-69.0145,77.7575l11.8714,3.1913l-0.6814,2.5355l-11.8719-3.1913
	L-69.0145,77.7575z M-70.1917,83.2472l12.2409,1.1279l-0.2408,2.614l-12.2411-1.1271L-70.1917,83.2472z M-58.2479,87.7415
	l0.0016,2.6257l-12.2936,0.0057l-0.0012-2.6254L-58.2479,87.7415z M-54.0589,93.9108c0,0,0,0.6133-0.0207,0.6133v0.0099H-73.749
	c0,0-0.613,0-0.613-0.0099h-0.0209V81.7305h2.1v10.7336h16.1241V81.7305h2.0999V93.9108z M-55.1661,77.5853l-6.9266-10.1562
	l2.1694-1.4793l6.9262,10.1569L-55.1661,77.5853z M-52.5269,75.9472l-2.1026-12.1116l2.587-0.449l2.103,12.1118L-52.5269,75.9472z"
	/>
</svg>
