<?xml version="1.0" encoding="utf-8"?>
<!-- Generator: Adobe Illustrator 19.1.0, SVG Export Plug-In . SVG Version: 6.00 Build 0)  -->
<svg version="1.1" id="Layer_1" xmlns="http://www.w3.org/2000/svg" xmlns:xlink="http://www.w3.org/1999/xlink" x="0px" y="0px"
	 viewBox="-91 49.217 56.693 56.693" enable-background="new -91 49.217 56.693 56.693" xml:space="preserve">
<path fill="#231F20" d="M-62.6661,54.3363c-13.5996,0-24.625,11.0234-24.625,24.623c0,13.5997,11.0254,24.625,24.625,24.625
	c13.5986,0,24.624-11.0253,24.624-24.625C-38.0422,65.3597-49.0676,54.3363-62.6661,54.3363z M-62.9425,71.5603
	c-0.9393,0-1.7008,0.7613-1.7008,1.7007l-0.008,10.2495c-0.0555,3.9194-3.2432,7.0807-7.1763,7.0807
	c-3.9679,0-7.1843-3.2162-7.1843-7.1842c0-0.0513,0-4.4565,0-4.4565h5.4982v4.3979c0,0.9391,0.7615,1.7009,1.7009,1.7009
	c0.9392,0,1.7007-0.7618,1.7007-1.7009v-10.377c0.1381-3.8461,3.2896-6.9243,7.1697-6.9243c3.8941,0,7.054,3.101,7.1696,6.9662
	v2.2718l-3.273,0.9767l-2.1959-1.0227V73.261C-61.2418,72.3216-62.0033,71.5603-62.9425,71.5603z M-46.8729,83.4071
	c0,3.968-3.2167,7.1842-7.1844,7.1842c-3.9463,0-7.15-3.1823-7.1844-7.1201v-4.4785l2.1959,1.0229l3.273-0.977v4.5151
	c0,0.9393,0.7616,1.7009,1.7009,1.7009c0.9393,0,1.7009-0.7615,1.7009-1.7009v-4.6031h5.4983
	C-46.8729,78.9506-46.8729,83.3558-46.8729,83.4071z"/>
</svg>
