<?xml version="1.0" encoding="utf-8"?>
<!-- Generator: Adobe Illustrator 19.1.0, SVG Export Plug-In . SVG Version: 6.00 Build 0)  -->
<svg version="1.1" id="Layer_1" xmlns="http://www.w3.org/2000/svg" xmlns:xlink="http://www.w3.org/1999/xlink" x="0px" y="0px"
	 viewBox="-91 49.217 56.693 56.693" enable-background="new -91 49.217 56.693 56.693" xml:space="preserve">
<g>
	<path fill="#231F20" d="M-76.1871,80.971c0,0.3481,0.2063,0.571,0.5283,0.571c0.6003,0,1.033-0.5714,1.0585-1.3997
		c-0.1544-0.0181-0.2227-0.0231-0.3289-0.0231C-75.7644,80.1192-76.1871,80.4053-76.1871,80.971z"/>
	<path fill="#231F20" d="M-63.9936,78.1871c-0.4662,0-0.8002,0.3563-0.9361,0.9994h1.6177
		C-63.304,79.0694-63.1565,78.1871-63.9936,78.1871z"/>
	<path fill="#231F20" d="M-62.898,54.5327c-13.5996,0-24.625,11.0234-24.625,24.623c0,13.5997,11.0254,24.625,24.625,24.625
		c13.5986,0,24.624-11.0253,24.624-24.625C-38.2741,65.556-49.2995,54.5327-62.898,54.5327z M-79.7025,82.6362l0.8444-5.2922
		l-1.8848,5.2922h-1.0045l-0.124-5.2614l-0.8873,5.2614h-1.3792l1.1521-6.8842h2.119l0.0591,4.2616l1.4299-4.2616h2.2885
		l-1.1398,6.8842H-79.7025z M-74.7495,82.6362l0.0278-0.5798c-0.3722,0.4579-0.8693,0.6771-1.5443,0.6771
		c-0.7987,0-1.3461-0.6243-1.3461-1.53c0-1.3636,0.9523-2.1579,2.587-2.1579c0.1672,0,0.3812,0.0153,0.6005,0.0436
		c0.0457-0.1852,0.0576-0.2639,0.0576-0.3643c0-0.3704-0.2566-0.5082-0.9449-0.5082c-0.7212-0.0086-1.3154,0.1709-1.5599,0.251
		c0.0155-0.0928,0.2045-1.259,0.2045-1.259c0.7342-0.2153,1.2185-0.2966,1.7635-0.2966c1.2654,0,1.9355,0.5685,1.9343,1.6418
		c0.0025,0.2878-0.045,0.6436-0.1192,1.1095c-0.128,0.8102-0.4026,2.5501-0.4401,2.9728
		C-73.7249,82.6362-74.7495,82.6362-74.7495,82.6362z M-70.435,79.3023c0.7382,0.3389,1.0388,0.7902,1.0388,1.5598
		c0,1.2795-0.7181,1.8715-2.2732,1.8715c-0.8997-0.026-1.1984-0.093-1.5331-0.1664c0.009-0.0582,0.2021-1.292,0.2021-1.292
		c0.4719,0.152,0.8809,0.2203,1.3205,0.2203c0.5832,0,0.8463-0.1575,0.8463-0.5065c0-0.2543-0.0924-0.3373-0.689-0.618
		c-0.7788-0.3674-1.1224-0.8546-1.1224-1.5636c-0.005-1.0344,0.5654-1.8953,2.2139-1.8953c0.337,0,0.9154,0.0493,1.2971,0.1096
		l-0.2099,1.2983c-0.3745-0.0528-0.7698-0.0848-1.0587-0.0848c-0.4764,0-0.7213,0.1556-0.7213,0.4583
		C-71.1237,78.9551-71.0527,79.0179-70.435,79.3023z M-67.182,81.3648c0.168,0,0.2979-0.0164,0.3976-0.0528l-0.1956,1.2393
		c-0.4031,0.127-0.7177,0.1823-1.0583,0.1823c-0.7534,0-1.1648-0.4332-1.1648-1.2297c-0.0103-0.2484,0.1087-0.8982,0.2024-1.4927
		c0.0848-0.5237,0.6389-3.8209,0.6389-3.8209h1.4648l-0.1714,0.8473h0.752l-0.2003,1.3453h-0.7545
		c-0.1701,1.0657-0.4127,2.3912-0.4156,2.5671C-67.6868,81.2394-67.5322,81.3648-67.182,81.3648z M-63.7682,81.467
		c0.5241,0,0.9971-0.1085,1.5235-0.3532l-0.2438,1.393c-0.5034,0.1542-0.9893,0.2271-1.5034,0.2267
		c-1.6399-0.0013-2.4942-0.858-2.4942-2.4978c0-1.9145,1.0872-3.3236,2.5625-3.3236c1.2087,0,1.9797,0.7889,1.9797,2.0271
		c0,0.4105-0.0536,0.811-0.1802,1.3765h-2.9171C-65.14,81.1281-64.6199,81.467-63.7682,81.467z M-60.4793,82.6362h-1.4742
		l0.067-0.3766c0.256-1.734,0.584-3.4891,0.7692-5.222h1.3532c0.013,0.2843-0.0524,0.5624-0.088,0.8492
		c0.4508-0.6628,0.796-1.0116,1.4127-0.883c-0.1823,0.3094-0.4277,0.923-0.5601,1.6239
		C-59.8253,78.5441-59.9518,79.2123-60.4793,82.6362z M-54.826,82.5315c-0.5425,0.1479-0.8936,0.202-1.3021,0.202
		c-1.5865,0-2.5748-1.1408-2.5748-2.9725c0-2.4612,1.3661-4.1812,3.3188-4.1812c0.6435,0,1.4035,0.2725,1.6196,0.3575l-0.2413,1.494
		c-0.5262-0.2645-0.9075-0.3716-1.3163-0.3716c-1.1002,0-1.8718,1.0633-1.8718,2.5798c0,1.0448,0.5186,1.6762,1.3754,1.6762
		c0.3628,0,0.7637-0.1123,1.2514-0.3532L-54.826,82.5315z M-50.3148,82.6362c-0.1961,0-1.2208,0-1.2208,0l0.0276-0.5798
		c-0.3724,0.4579-0.8693,0.6771-1.5438,0.6771c-0.7993,0-1.3461-0.6243-1.3461-1.53c0-1.3636,0.9514-2.1579,2.5866-2.1579
		c0.1671,0,0.3808,0.0153,0.5999,0.0436c0.0456-0.1852,0.0578-0.2639,0.0578-0.3643c0-0.3704-0.256-0.5082-0.9447-0.5082
		c-0.7206-0.0086-1.3147,0.1709-1.5598,0.251c0.0155-0.0928,0.2044-1.259,0.2044-1.259c0.7344-0.2153,1.2183-0.2966,1.7634-0.2966
		c1.2653,0,1.936,0.5685,1.9343,1.6418c0.0029,0.2878-0.0448,0.6436-0.119,1.1095C-50.0027,80.4736-50.2771,82.2135-50.3148,82.6362
		z M-48.3491,82.6362h-1.4739l0.067-0.3766c0.2564-1.734,0.584-3.4891,0.7684-5.222h1.354
		c0.0121,0.2843-0.0528,0.5624-0.0888,0.8492c0.4516-0.6628,0.7964-1.0116,1.4135-0.883c-0.1827,0.3094-0.4277,0.923-0.5593,1.6239
		C-47.6952,78.5441-47.8221,79.2123-48.3491,82.6362z M-43.9095,82.6362l0.0691-0.5212c-0.4043,0.4319-0.8186,0.6184-1.3586,0.6184
		c-1.0709,0-1.7793-0.923-1.7793-2.3235c0-1.8624,1.0985-3.4321,2.3976-3.4321c0.5715,0,1.0042,0.2333,1.4072,0.7637l0.3268-1.9896
		h1.4533l-1.1223,6.8842H-43.9095z"/>
	<path fill="#231F20" d="M-52.9731,80.971c0,0.3481,0.2062,0.571,0.5279,0.571c0.6,0,1.0331-0.5714,1.0579-1.3997
		c-0.1537-0.0181-0.222-0.0231-0.3281-0.0231C-52.5503,80.1192-52.9731,80.4053-52.9731,80.971z"/>
	<path fill="#231F20" d="M-44.3021,78.358c-0.6682,0-1.1429,0.7803-1.1429,1.8814c0,0.7327,0.2543,1.1031,0.7553,1.1031
		c0.6867,0,1.1685-0.7776,1.1685-1.8865C-43.5212,78.7446-43.7956,78.358-44.3021,78.358z"/>
</g>
</svg>
