<?xml version="1.0" encoding="utf-8"?>
<!-- Generator: Adobe Illustrator 19.1.0, SVG Export Plug-In . SVG Version: 6.00 Build 0)  -->
<svg version="1.1" id="Layer_1" xmlns="http://www.w3.org/2000/svg" xmlns:xlink="http://www.w3.org/1999/xlink" x="0px" y="0px"
	 viewBox="-91 49.217 56.693 56.693" enable-background="new -91 49.217 56.693 56.693" xml:space="preserve">
<g>
	<path fill="#231F20" d="M-60.3295,73.3056c0-0.6482-0.2634-1.027-0.7028-1.2867c-0.449-0.2595-0.972-0.2783-1.6819-0.2783h-3.1948
		v5.8111h1.389V75.438h1.491c0.5,0,0.8094,0.0443,1.0123,0.2487c0.2528,0.2796,0.2193,0.7824,0.2193,1.1321l0.0053,0.7328h1.4009
		v-1.1416c0-0.519-0.0339-0.7772-0.2299-1.0662c-0.1236-0.1693-0.3832-0.3736-0.6872-0.4893
		C-60.9478,74.7109-60.3295,74.2322-60.3295,73.3056z M-62.1458,74.1217c-0.1909,0.1158-0.4166,0.1198-0.6871,0.1198h-1.6873
		v-1.2907h1.7103c0.242,0,0.4947,0.0109,0.6586,0.1048c0.1802,0.0847,0.2917,0.2648,0.2917,0.5137
		C-61.8596,73.8233-61.9657,74.0276-62.1458,74.1217z"/>
	<rect x="-59.5239" y="71.7406" fill="#231F20" width="1.4172" height="5.8111"/>
	<path fill="#231F20" d="M-54.5399,72.9858h1.3167v-1.2452h-1.3448c-0.9572,0-1.6603,0.2139-2.1093,0.6777
		c-0.597,0.6225-0.7488,1.4104-0.7488,2.2722c0,1.0568,0.254,1.725,0.7421,2.2184c0.4841,0.4934,1.3389,0.6428,2.014,0.6428h1.6254
		l0.5244-1.2961h2.8853l0.5406,1.2961h2.8287v-4.3616l2.6328,4.3616h1.9682v-5.8109h-1.4227v4.0471l-2.4415-4.0471h-2.1147v5.4965
		l-2.3516-5.4965h-2.0812l-1.9578,4.5699h-0.6237c-0.3656,0-0.7542-0.0698-0.968-0.2997c-0.2583-0.2932-0.382-0.7422-0.382-1.3647
		c0-0.6091,0.1624-1.0715,0.3993-1.3162C-55.3329,73.0611-55.0467,72.9858-54.5399,72.9858z M-51.0697,72.7276l0.9612,2.3165h-1.917
		L-51.0697,72.7276z"/>
	<path fill="#231F20" d="M-76.5294,75.6827l-1.8177-3.9421h-2.2669v5.5019l-2.3624-5.5019h-2.0636l-2.148,5.0183
		c-0.0233,0.2634-0.0453,0.5272-0.0603,0.7928h1.2296l0.5392-1.2961h2.892l0.5337,1.2961h2.8251v-4.5552l2.0192,4.5552h1.2196
		l2.014-4.5512l0.0053,4.5512h1.4238v-5.8111h-2.3126L-76.5294,75.6827z M-84.9851,75.0442l0.9453-2.3165l0.9507,2.3165H-84.9851z"
		/>
	<polygon fill="#231F20" points="-66.8717,72.9507 -66.8717,71.7406 -71.5117,71.7406 -71.5117,77.5517 -66.8717,77.5517 
		-66.8717,76.3497 -70.1226,76.3497 -70.1226,75.1893 -66.9497,75.1893 -66.9497,73.9981 -70.1226,73.9981 -70.1226,72.9507 	"/>
	<path fill="#231F20" d="M-40.6577,82.9793h2.2836c0.0672-0.409,0.1243-0.8213,0.1711-1.2368h-2.69
		c-1.4576,0-1.9929,0.8873-1.9929,1.7305c0,1.8394,1.6271,1.7548,2.9312,1.799c0.2421,0,0.3887,0.0404,0.4894,0.129
		c0.1022,0.0808,0.1698,0.215,0.1698,0.3845c0,0.1585-0.0676,0.2893-0.1644,0.379c-0.1116,0.1092-0.2971,0.1441-0.5621,0.1441
		h-2.6715v1.2463h2.6825c0.1561,0,0.2955-0.0174,0.4368-0.0328c0.3928-1.0588,0.7112-2.1533,0.9568-3.2751
		c-0.3008-0.1417-0.6942-0.2126-1.2135-0.2255l-0.7528-0.0202c-0.2313,0-0.3887-0.0147-0.5352-0.0657
		c-0.1801-0.0647-0.3038-0.2136-0.3038-0.433c0-0.1844,0.0565-0.324,0.203-0.4182C-41.0783,82.9888-40.9104,82.9793-40.6577,82.9793
		z"/>
	<path fill="#231F20" d="M-40.1631,88.696h-3.5991v-0.519c-0.417,0.3346-1.1699,0.519-1.8903,0.519h-11.3464v-1.8743
		c0-0.2297-0.0228-0.2393-0.2526-0.2393h-0.1802v2.1139h-3.735v-2.1888c-0.6252,0.2701-1.3339,0.2944-1.9347,0.2852h-0.4452v1.9078
		l-4.5283-0.0042l-1.1135-1.2608l-1.1817,1.2608h-7.3464v-8.1101h7.4872l1.0742,1.2413l1.147-1.2413h5.0122
		c0.5796,0,1.5303,0.0605,1.9578,0.4746v-0.4746h4.4785c0.4207,0,1.3325,0.0849,1.8729,0.4746v-0.4746h6.7898v0.4746
		c0.3375-0.324,1.0513-0.4746,1.6592-0.4746h3.8022v0.4746c0.399-0.2888,0.9626-0.4746,1.7383-0.4746h2.5706v0.3266
		c0.0507-0.6452,0.0842-1.2952,0.0842-1.9534c0-13.5996-11.0254-24.623-24.624-24.623c-10.6602,0-19.7366,6.7741-23.1631,16.2521
		h3.5897l0.4666,0.9572v-0.9572h4.2473l0.9291,2.0933l0.9047-2.0933h13.4842c0.6129,0,1.1642,0.1143,1.5687,0.4732v-0.4732h3.691
		v0.4732c0.6357-0.3483,1.4225-0.4732,2.3179-0.4732h5.3483l0.4962,0.9572v-0.9572h3.9596l0.5403,0.9572v-0.9572h3.8589v8.1046
		h-3.8991l-0.7369-1.2261v1.2261h-4.8657l-0.5286-1.2907h-1.198l-0.5403,1.2907H-54.72c-0.9908,0-1.7438-0.2339-2.2278-0.4933
		v0.4933h-6.0019v-1.8391c0-0.2596-0.0461-0.2742-0.2032-0.2796h-0.2245l0.0054,2.1187h-11.6044v-1.0015l-0.4168,1.0057h-2.424
		l-0.4168-0.991v0.9868h-4.6695l-0.5338-1.2907h-1.1979l-0.5351,1.2907h-2.1141c-0.001,0.0891-0.0067,0.177-0.0067,0.2663
		c0,13.5997,11.0254,24.625,24.625,24.625c10.1416,0,18.849-6.1338,22.6223-14.8928C-40.0839,88.6922-40.1229,88.696-40.1631,88.696
		z"/>
	<path fill="#231F20" d="M-54.3768,83.3074c0-0.6631-0.2758-1.0258-0.7141-1.2906c-0.456-0.2434-0.9681-0.2744-1.6713-0.2744
		h-3.2067v5.8124h1.3956v-2.123h1.4844c0.5068,0,0.8161,0.0498,1.0191,0.2581c0.2581,0.2701,0.2246,0.7881,0.2246,1.1376v0.7273
		h1.3943v-1.1521c-0.0055-0.5125-0.0339-0.7773-0.23-1.061c-0.1185-0.1693-0.3713-0.3738-0.6804-0.488
		C-54.9957,84.7085-54.377,84.235-54.3768,83.3074z M-56.2002,84.1303c-0.1859,0.1102-0.4156,0.1198-0.6859,0.1198h-1.6873v-1.3055
		h1.7103c0.2473,0,0.4948,0.0053,0.6629,0.1049c0.1801,0.0942,0.2876,0.2742,0.2876,0.5228
		C-55.9126,83.8211-56.0202,84.0214-56.2002,84.1303z"/>
	<path fill="#231F20" d="M-45.4442,86.3085h-2.6945v1.2463h2.7053c1.4008,0,2.182-0.5837,2.182-1.834
		c0-0.5982-0.145-0.9517-0.4154-1.2313c-0.3146-0.3187-0.8322-0.4492-1.5862-0.4677l-0.7476-0.0202
		c-0.2368,0-0.394-0.0147-0.5406-0.0657c-0.1747-0.0647-0.304-0.2136-0.304-0.433c0-0.1843,0.0565-0.324,0.2085-0.4182
		c0.1398-0.0955,0.304-0.1049,0.5566-0.1049h2.548v-1.2372h-2.7847c-1.4561,0-1.9858,0.8873-1.9858,1.7305
		c0,1.8394,1.6267,1.7548,2.9257,1.799c0.2418,0,0.3884,0.0404,0.4946,0.129c0.0953,0.0806,0.1694,0.215,0.1694,0.3845
		c0,0.1585-0.0686,0.2893-0.1641,0.379C-44.994,86.2736-45.1808,86.3085-45.4442,86.3085z"/>
	<path fill="#231F20" d="M-62.9619,81.7423h-4.4383l-1.7668,1.9053l-1.7089-1.9053h-5.5865v5.8124h5.502l1.7773-1.9241
		l1.7103,1.9241h2.6998v-1.9496h1.733c1.2142,0,2.4189-0.3333,2.4189-1.948C-60.621,82.0475-61.8596,81.7423-62.9619,81.7423z
		 M-71.6635,86.3434h-3.4151V85.187h3.0493v-1.1859h-3.0493v-1.0568h3.4824l1.5192,1.6938L-71.6635,86.3434z M-66.1563,87.026
		l-2.1326-2.3676l2.1326-2.2922V87.026z M-62.978,84.4247h-1.795v-1.48h1.8111c0.5015,0,0.8495,0.2044,0.8495,0.7126
		C-62.1124,84.1601-62.4443,84.4247-62.978,84.4247z"/>
	<polygon fill="#231F20" points="-48.9709,82.9444 -48.9709,81.7423 -53.6067,81.7423 -53.6067,87.5548 -48.9709,87.5548 
		-48.9709,86.3487 -52.2235,86.3434 -52.2235,85.187 -49.0503,85.187 -49.0503,84.0012 -52.2235,84.0012 -52.2235,82.9444 	"/>
</g>
</svg>
