<?xml version="1.0" encoding="utf-8"?>
<!-- Generator: Adobe Illustrator 19.1.0, SVG Export Plug-In . SVG Version: 6.00 Build 0)  -->
<svg version="1.1" id="Layer_1" xmlns="http://www.w3.org/2000/svg" xmlns:xlink="http://www.w3.org/1999/xlink" x="0px" y="0px"
	 viewBox="-91 49.217 56.693 56.693" enable-background="new -91 49.217 56.693 56.693" xml:space="preserve">
<g>
	<path fill="#231F20" d="M-56.2301,76.2296c-1.3002-0.0457-1.6673,1.0455-1.7773,1.9347c0.3912-0.0629,0.8107-0.0904,1.2469-0.0751
		c0.8184,0.0287,1.5696,0.2012,2.1766,0.4718C-54.5891,77.6395-54.7907,76.2791-56.2301,76.2296z"/>
	<path fill="#231F20" d="M-62.6661,54.3363c-13.5996,0-24.625,11.0234-24.625,24.623c0,13.5997,11.0254,24.625,24.625,24.625
		c13.5986,0,24.624-11.0253,24.624-24.625C-38.0422,65.3597-49.0676,54.3363-62.6661,54.3363z M-76.3453,69.5496l5.886-5.8368
		c0.0115-0.0115,0.0231-0.0172,0.0347-0.0192l-0.1036,0.1945c-0.2168,0.4332-0.3412,0.9503-0.3412,1.5432v0.0085
		c0,0.722,0.0368,3.3184,0.0368,3.3195c-0.0004,0.1722-0.14,0.3136-0.3135,0.3136h-3.0293c-0.002,0-0.002,0-0.002,0
		c-0.744,0-1.3655,0.1268-1.8781,0.3581c-0.0235,0.0103-0.19,0.0927-0.3117,0.1529C-76.364,69.5714-76.3568,69.5591-76.3453,69.5496
		z M-49.9426,82.2666c-0.4222,4.5756-1.1199,7.3008-1.4084,8.1937c-1.4579,4.5234-2.7025,4.6391-6.2332,4.6391
		c-4.5032,0-5.8818-0.6689-5.8818-4.2712c0-3.9681,1.8669-4.0518,5.0398-3.9645c0.4544,0.0112-0.0261,0.4553-0.0261,1.2236
		c0,0.7723,0.2975,1.0771-0.1124,1.0771c-0.9175,0-2.1556-0.1312-2.1556,1.1205c0,1.5488,0.743,1.4984,2.6925,1.4984
		c2.405,0,2.8651-0.3003,2.8651-2.4906c0-3.6-1.0184-4.1522-2.4216-4.3135c-1.5519-0.1819-3.0792-0.4147-3.8155-0.6758
		c-1.865-0.6624-1.7318-3.1313-1.7318-3.829c0-0.1051-0.1474-0.1005-0.1474,0c0,0.9882-0.0707,2.3538-0.5786,3.8929
		c-0.1585,0.4432-0.2737,0.7454-0.2757,0.7484c-0.5851,1.2266-1.5667,0.8059-3.1308,0.6058
		c-1.5669-0.1996-4.9101-0.8968-6.3738-1.5234c-0.6569-0.305-0.8796-0.5933-1.214-1.2853
		c-0.8624-1.7787-1.7703-7.6275-1.8823-8.4647c-0.1346-1.082-0.1406-1.6411-0.1406-1.6411
		c-0.0017-0.6841,0.0685-1.3546,0.4733-1.8978c0.2032-0.2736,0.4708-0.5048,0.8486-0.6763c0.3771-0.1714,0.871-0.28,1.5172-0.28
		h3.0298c0.6605-0.0009,1.1934-0.5361,1.1937-1.1936c0-0.0045-0.0096-0.665-0.0186-1.4037
		c-0.009-0.7363-0.0187-1.5649-0.0187-1.9167c0.0012-0.6216,0.1587-1.0665,0.402-1.4138c0.3629-0.5199,1.0149-0.8573,1.6039-1.022
		c0.7413-0.2078,3.6285-0.3894,5.4972,0.3627c0.7013,0.2826,1.3281,1.099,1.4586,1.9927c1.0871-0.0336,2.8868-0.048,4.418,0.1323
		c1.9033,0.2244,3.418,0.504,4.1651,0.774c0.6924,0.2496,1.4582,0.8843,1.6989,2.1725
		C-50.1943,70.6413-49.6757,79.3735-49.9426,82.2666z"/>
</g>
</svg>
