<?xml version="1.0" encoding="utf-8"?>
<!-- Generator: Adobe Illustrator 19.1.0, SVG Export Plug-In . SVG Version: 6.00 Build 0)  -->
<svg version="1.1" id="Layer_1" xmlns="http://www.w3.org/2000/svg" xmlns:xlink="http://www.w3.org/1999/xlink" x="0px" y="0px"
	 viewBox="-91 49.217 56.693 56.693" enable-background="new -91 49.217 56.693 56.693" xml:space="preserve">
<path fill="#231F20" d="M-62.653,54.3363c-13.5996,0-24.625,11.0234-24.625,24.623c0,13.5997,11.0254,24.625,24.625,24.625
	c13.5986,0,24.624-11.0253,24.624-24.625C-38.029,65.3597-49.0544,54.3363-62.653,54.3363z M-74.0924,83.7351
	c-0.5219-0.0181-0.9963-0.3329-1.2642-0.843c-0.167-0.3179-0.2905-0.8262-0.367-1.5118c-0.1932-1.8694,0.0351-4.6715,0.6296-5.6271
	c0.3148-0.4958,0.7966-0.7702,1.3245-0.7459c0.3257,0.0037,0.353,0.0043,6.0107,2.3386l-0.0022,0.005
	c0.149,0.0529,0.5207,0.2047,1.5759,0.6345c0.6849,0.2563,1.1213,0.9749,1.0778,1.7849c-0.047,0.7944-0.5208,1.4203-1.2069,1.5958
	c-0.1322,0.0442-0.5764,0.186-2.221,0.7111c-4.7484,1.5255-5.1882,1.6611-5.4738,1.6611
	C-74.037,83.7383-74.0635,83.737-74.0924,83.7351z M-62.3398,86.7879c-0.0156,5.4636-0.0239,5.4884-0.1291,5.7958
	c-0.1907,0.5089-0.614,0.8417-1.1951,0.9475c-0.1014,0.0174-0.2174,0.0255-0.3453,0.0255c-1.6884,0-5.489-1.4464-6.3668-2.4891
	c-0.2199-0.2651-0.3503-0.5618-0.3782-0.8598c-0.0234-0.2053,0.0031-0.4168,0.079-0.6227c0.1067-0.3086,0.1207-0.349,4.0806-4.9963
	l0.0951-0.1119c0.2644-0.3123,1.0048-1.1914,1.0048-1.1914c0.4551-0.5699,1.271-0.7621,2.0266-0.4703
	c0.7385,0.2843,1.1867,0.9282,1.1416,1.64C-62.3277,84.5234-62.3398,86.7879-62.3398,86.7879z M-63.4718,76.0768
	c-0.1608,0.051-0.3201,0.0759-0.4778,0.0759c-0.7083,0-1.3818-0.5095-2.007-1.5223c-0.7034-1.1068-6.8957-10.8511-7.0605-11.1902
	c-0.15-0.55,0.0121-1.0906,0.4116-1.5062c1.0983-1.1335,6.7877-2.7336,8.3445-2.3467c0.5842,0.1456,1.0026,0.5344,1.1484,1.0663
	l0.0066,0.0298c0.0871,0.5027,0.7636,10.5593,0.8616,12.8109C-62.1743,74.9358-62.5874,75.8048-63.4718,76.0768z M-60.3023,76.1109
	c0.0613-0.079,1.3839-1.8807,1.3839-1.8807c3.1754-4.3431,3.241-4.4296,3.5129-4.6069c0.4454-0.3005,0.9873-0.3247,1.5211-0.0659
	c1.2931,0.6302,3.8239,4.3648,3.9828,5.8766l0.0028,0.0249l-0.0009,0.0585c0.0349,0.5693-0.1876,1.0582-0.6274,1.3575
	c-0.2722,0.1767-0.3278,0.2128-6.243,1.6455c0,0-1.6656,0.5128-2.4537,0.4025c-0.4336-0.1082-0.8364-0.3944-1.1133-0.8187
	C-60.7689,77.4423-60.7552,76.6603-60.3023,76.1109z M-49.7196,85.3228c-0.2119,1.4551-3.063,5.0778-4.4218,5.6203
	c-0.2159,0.0865-0.4293,0.1288-0.6346,0.1288c-0.3163,0-0.6131-0.1008-0.8685-0.3011c-0.2634-0.2059-0.3962-0.3969-3.4913-5.4243
	l-0.8847-1.4396c-0.4059-0.6184-0.3381-1.4583,0.1742-2.0829c0.4962-0.611,1.2458-0.8392,1.909-0.5848
	c0.0943,0.0361,1.374,0.4591,2.212,0.7354c5.2013,1.7096,5.2222,1.7252,5.4763,1.9149
	C-49.8303,84.2241-49.6403,84.7442-49.7196,85.3228z"/>
</svg>
