<?xml version="1.0" encoding="utf-8"?>
<!-- Generator: Adobe Illustrator 19.2.0, SVG Export Plug-In . SVG Version: 6.00 Build 0)  -->
<svg version="1.1" id="Layer_1" xmlns="http://www.w3.org/2000/svg" xmlns:xlink="http://www.w3.org/1999/xlink" x="0px" y="0px"
	 width="56.6934px" height="56.6934px" viewBox="0 0 56.6934 56.6934" style="enable-background:new 0 0 56.6934 56.6934;"
	 xml:space="preserve">
<path d="M29.2066,4.3736c-13.5996,0-24.625,11.0234-24.625,24.623c0,13.5997,11.0254,24.625,24.625,24.625
	c13.5986,0,24.624-11.0253,24.624-24.625C53.8307,15.397,42.8053,4.3736,29.2066,4.3736z M38.6445,37.7488H20.125
	c-3.4,0-6.1562-2.7562-6.1562-6.1562c0-2.5728,1.5789-4.7759,3.82-5.6962c0.1645-2.2299,2.0245-3.9883,4.2963-3.9883
	c0.7806,0,1.512,0.2086,2.1435,0.5715c1.3979-2.5419,4.1006-4.265,7.2064-4.265c4.4742,0,8.1108,3.5755,8.2146,8.0247
	c2.7233,0.4762,4.7938,2.8507,4.7938,5.7104C44.4434,35.1526,41.8472,37.7488,38.6445,37.7488z"/>
</svg>
