<?xml version="1.0" encoding="utf-8"?>
<!-- Generator: Adobe Illustrator 19.2.1, SVG Export Plug-In . SVG Version: 6.00 Build 0)  -->
<svg version="1.1" id="Layer_1" xmlns="http://www.w3.org/2000/svg" xmlns:xlink="http://www.w3.org/1999/xlink" x="0px" y="0px"
	 width="56.6934px" height="56.6934px" viewBox="0 0 56.6934 56.6934" style="enable-background:new 0 0 56.6934 56.6934;"
	 xml:space="preserve">
<path d="M29.2411,4.3736c-13.5996,0-24.625,11.0234-24.625,24.623c0,13.5997,11.0254,24.625,24.625,24.625
	c13.5986,0,24.624-11.0253,24.624-24.625C53.8651,15.397,42.8397,4.3736,29.2411,4.3736z M18.7236,31.71
	c-2.0563,0-4.2676,0-4.2676,0l1.1639-5.3709c0,0,3.0013,0,4.0896,0c2.6575,0,3.2916,1.3017,3.2916,2.3366
	C23.0011,30.1353,22.05,31.71,18.7236,31.71z M20.1941,23.6181c-2.0496,0-4.2572,0-4.2572,0l1.1566-5.3782c0,0,3.0007,0,4.0953,0
	c2.655,0,3.2901,1.3068,3.2901,2.3423C24.4789,22.0437,23.5284,23.6181,20.1941,23.6181z M28.1631,40.1419
	c-2.0554,0-4.269,0-4.269,0l1.162-5.3809c0,0,3.0004,0,4.0953,0c2.6535,0,3.2819,1.3096,3.2819,2.342
	C32.4334,38.5696,31.489,40.1419,28.1631,40.1419z M29.7372,31.71c-2.0496,0-4.2594,0-4.2594,0l1.1615-5.3709c0,0,2.9989,0,4.0938,0
	c2.6533,0,3.2859,1.3017,3.2859,2.3366C34.019,30.1353,33.07,31.71,29.7372,31.71z M31.2156,23.6181c-2.0518,0-4.2594,0-4.2594,0
	l1.1624-5.3782c0,0,3.0001,0,4.0881,0c2.6574,0,3.2892,1.3068,3.2892,2.3423C35.4959,22.0437,34.5494,23.6181,31.2156,23.6181z
	 M39.6811,36.8579c-2.0502,0-4.2618,0-4.2618,0l1.16-5.3774c0,0,3.0023,0,4.0914,0c2.6575,0,3.2899,1.3114,3.2899,2.3428
	C43.9605,35.2853,43.0115,36.8579,39.6811,36.8579z M41.2664,28.4312c-2.0515,0-4.2609,0-4.2609,0l1.1646-5.3801
	c0,0,2.9968,0,4.0914,0c2.6566,0,3.2862,1.3087,3.2862,2.3427C45.5476,26.8555,44.6001,28.4312,41.2664,28.4312z"/>
</svg>
