<?xml version="1.0" encoding="utf-8"?>
<!-- Generator: Adobe Illustrator 19.2.1, SVG Export Plug-In . SVG Version: 6.00 Build 0)  -->
<svg version="1.1" id="Layer_1" xmlns="http://www.w3.org/2000/svg" xmlns:xlink="http://www.w3.org/1999/xlink" x="0px" y="0px"
	 width="56.6934px" height="56.6934px" viewBox="0 0 56.6934 56.6934" style="enable-background:new 0 0 56.6934 56.6934;"
	 xml:space="preserve">
<path d="M28.241,4.4841c-13.5996,0-24.625,11.0234-24.625,24.623c0,13.5997,11.0254,24.625,24.625,24.625
	c13.5986,0,24.624-11.0253,24.624-24.625C52.865,15.5075,41.8396,4.4841,28.241,4.4841z M27.0882,17.4922
	c0.2005-0.1835,0.3412-0.209,1.0366-0.1877c0.3625,0.0128,0.8958,0.0554,1.1858,0.0895c1.4674,0.1834,2.6533,0.5375,3.9543,1.173
	c1.2797,0.6271,2.0986,1.22,3.1821,2.2992c1.0153,1.0195,1.5783,1.7916,2.1755,2.9902c0.8318,1.6721,1.3053,3.6599,1.3864,5.8482
	c0.0299,0.7463,0.0085,0.9128-0.1621,1.126c-0.3242,0.4138-1.0366,0.3456-1.2797-0.1194c-0.0768-0.1536-0.0981-0.2856-0.1237-0.8829
	c-0.0427-0.9171-0.1066-1.51-0.2346-2.2181c-0.5033-2.7769-1.8342-4.9951-3.9585-6.5861c-1.7703-1.3309-3.6002-1.9792-5.9974-2.12
	c-0.8105-0.0469-0.9512-0.0768-1.1346-0.2176C26.7768,18.4178,26.7597,17.7865,27.0882,17.4922z M32.1728,22.9863
	c-0.8574-0.5118-2.1243-0.8915-3.2803-0.9853c-0.4181-0.0342-0.6484-0.1194-0.8062-0.3029c-0.2431-0.2773-0.2687-0.6526-0.064-0.964
	c0.2219-0.3455,0.563-0.401,1.5826-0.2474c2.5893,0.3796,4.5941,1.5826,5.9079,3.5362c0.738,1.1005,1.1987,2.3931,1.3565,3.7793
	c0.0554,0.5077,0.0554,1.4333-0.0043,1.5869c-0.0555,0.145-0.2347,0.3413-0.3882,0.4222c-0.1663,0.0853-0.5203,0.0768-0.7166-0.0255
	c-0.3285-0.1664-0.4266-0.4309-0.4266-1.1475c0-1.1048-0.2858-2.2693-0.7806-3.1737C33.99,24.4324,33.171,23.5793,32.1728,22.9863z
	 M33.6146,28.6724c-0.2517,0.2303-0.7166,0.2389-0.9982,0.0214c-0.2048-0.1536-0.2687-0.3157-0.3157-0.755
	c-0.0554-0.5844-0.1578-0.9939-0.3326-1.3736c-0.3754-0.8062-1.0366-1.2242-2.1542-1.3607
	c-0.5247-0.064-0.6826-0.1237-0.8531-0.3242c-0.3114-0.3712-0.192-0.9726,0.2388-1.1944c0.1622-0.0811,0.2304-0.0896,0.5887-0.0682
	c0.2218,0.0128,0.5503,0.0511,0.7252,0.0896c0.8403,0.1791,1.4845,0.499,2.0347,1.0152c0.7081,0.6697,1.0963,1.4802,1.2669,2.6447
	C33.9302,28.1264,33.8833,28.425,33.6146,28.6724z M39.9874,39.8783c-0.3157,0.8147-1.5441,2.3418-2.4016,2.9944
	c-0.7763,0.5886-1.3265,0.8147-2.0517,0.8489c-0.5972,0.0298-0.8446-0.0214-1.6082-0.337
	c-5.989-2.4698-10.7707-6.1552-14.5671-11.2186c-1.9835-2.6447-3.4936-5.3874-4.5259-8.2326
	c-0.6014-1.6593-0.6313-2.3802-0.1365-3.2291c0.2134-0.3583,1.1219-1.2456,1.7831-1.7404c1.1006-0.819,1.6082-1.1219,2.0134-1.2072
	c0.2772-0.0597,0.7592-0.0128,1.0664,0.0981c0.1493,0.0511,0.3796,0.1705,0.5119,0.2559c0.8104,0.5375,3.067,3.4253,3.8049,4.8671
	c0.4222,0.8232,0.563,1.4332,0.4308,1.8854c-0.1366,0.4863-0.3626,0.7422-1.3736,1.557c-0.4052,0.3284-0.7849,0.6654-0.8445,0.755
	c-0.1536,0.2218-0.2773,0.6569-0.2773,0.964c0.0043,0.7124,0.465,2.0049,1.0707,2.9988c0.4692,0.7721,1.3095,1.7616,2.1413,2.521
	c0.9768,0.8959,1.8385,1.5057,2.811,1.9878c1.2498,0.6227,2.0134,0.7806,2.5723,0.5204c0.1407-0.064,0.29-0.1493,0.337-0.1877
	c0.0426-0.0383,0.3711-0.4393,0.7294-0.8828c0.691-0.8704,0.8489-1.011,1.3223-1.1731c0.6015-0.2048,1.2158-0.1494,1.8342,0.1663
	c0.4692,0.2432,1.493,0.8788,2.1542,1.3394c0.8701,0.6101,2.7299,2.1287,2.9817,2.4315
	C40.2093,38.4067,40.286,39.1061,39.9874,39.8783z"/>
</svg>
