<?xml version="1.0" encoding="utf-8"?>
<!-- Generator: Adobe Illustrator 19.2.1, SVG Export Plug-In . SVG Version: 6.00 Build 0)  -->
<svg version="1.1" id="Layer_1" xmlns="http://www.w3.org/2000/svg" xmlns:xlink="http://www.w3.org/1999/xlink" x="0px" y="0px"
	 width="56.6934px" height="56.6934px" viewBox="0 0 56.6934 56.6934" style="enable-background:new 0 0 56.6934 56.6934;"
	 xml:space="preserve">
<polygon points="29.3938,31.666 39.309,38.5604 39.309,24.8362 34.9235,27.8569 "/>
<path d="M28.3472,3.9229c-13.5996,0-24.625,11.0234-24.625,24.623c0,13.5997,11.0254,24.625,24.625,24.625
	c13.5986,0,24.624-11.0253,24.624-24.625C52.9712,14.9463,41.9458,3.9229,28.3472,3.9229z M39.9141,39.7094v0.0007H16.7774h-0.8704
	c-1.3447,0-2.4451-1.1003-2.4451-2.4451V20.5627c0-1.3448,1.1003-2.4451,2.4451-2.4451l0.0096,0.0072l-0.0096-0.0078h24.9518
	c1.3447,0,2.445,1.1002,2.445,2.4449v0.7087l0.0007-0.0005l-0.0007,0.0007l0.004,15.9963
	C43.2494,39.0451,42.479,39.6797,39.9141,39.7094z"/>
<path d="M28.3421,32.2622c-0.1196,0-0.2391-0.0359-0.3419-0.1073l-0.1786-0.1244l-10.1835,7.0811h21.4153l-10.1863-7.0829
	C28.8671,32.0287,28.4607,32.2622,28.3421,32.2622z"/>
<polygon points="40.858,18.1176 40.8587,18.117 40.8565,18.1187 "/>
<polygon points="39.037,18.7154 17.7191,18.7154 28.3432,26.5924 "/>
<polygon points="27.2877,31.659 17.382,24.8359 17.3764,38.5647 27.2976,31.666 "/>
</svg>
