<?xml version="1.0" encoding="utf-8"?>
<!-- Generator: Adobe Illustrator 19.2.1, SVG Export Plug-In . SVG Version: 6.00 Build 0)  -->
<svg version="1.1" id="Layer_1" xmlns="http://www.w3.org/2000/svg" xmlns:xlink="http://www.w3.org/1999/xlink" x="0px" y="0px"
	 width="56.6934px" height="56.6934px" viewBox="0 0 56.6934 56.6934" style="enable-background:new 0 0 56.6934 56.6934;"
	 xml:space="preserve">
<g>
	<path d="M26.6278,24.5211c0.1606-0.0657,0.3797-0.0986,0.6571-0.0986c0.0876,0,0.2628,0.0076,0.5256,0.0219
		c0.2628,0.0146,0.6933,0.0514,1.2922,0.1096l-2.3654-6.8335c-0.6133-1.7375-1.0878-2.8724-1.4236-3.4057
		c-0.3362-0.533-0.7009-0.7994-1.0952-0.7994c-0.3066,0-0.5552,0.1171-0.7447,0.3504c-0.1898,0.2336-0.2847,0.5475-0.2847,0.9418
		c0,0.6718,0.2552,1.8398,0.7665,3.5043c0.511,1.6646,1.2776,3.8475,2.2997,6.5486C26.3431,24.6999,26.4669,24.5868,26.6278,24.5211
		z"/>
	<path d="M29.2561,33.3366c0.3504-0.438,0.7191-0.8357,1.1061-1.1936c0.3866-0.3578,0.7918-0.6754,1.2155-0.9529
		c-0.6278-0.0292-1.2231-0.0947-1.785-0.197c-0.5621-0.1019-1.0988-0.2483-1.6098-0.438c0.2333,0.4675,0.4414,0.9344,0.6243,1.4016
		C28.9896,32.4243,29.139,32.8842,29.2561,33.3366z"/>
	<path d="M37.1846,27.7297c-0.5989-0.4961-1.7631-0.9418-3.4933-1.336c-1.7302-0.3942-3.5372-0.5914-5.4208-0.5914
		c-0.5256,0-0.8979,0.0876-1.1169,0.2628c-0.2191,0.1752-0.3286,0.4746-0.3286,0.8979c0,0.9932,0.5549,1.712,1.6646,2.1573
		c1.1094,0.4457,2.9054,0.6681,5.3879,0.6681h0.898c0.2044,0,0.3687,0.0767,0.4928,0.23c0.1238,0.1533,0.2081,0.3833,0.2519,0.6899
		c-0.2486,0.2336-0.7593,0.5002-1.5332,0.7993c-0.7741,0.2993-1.3655,0.595-1.774,0.887c-0.8762,0.6428-1.5806,1.4055-2.1136,2.2888
		c-0.5333,0.8838-0.7994,1.7194-0.7994,2.5078c0,0.4819,0.1129,1.0623,0.3395,1.7412c0.2264,0.679,0.3395,1.0986,0.3395,1.2593
		v0.1533l-0.0438,0.1971c-0.6428-0.0438-1.1499-0.4194-1.5222-1.1279c-0.3724-0.7081-0.5585-1.6536-0.5585-2.8363V36.381
		c-0.1171,0.1022-0.23,0.1753-0.3395,0.2191c-0.1095,0.0437-0.23,0.0657-0.3614,0.0657c-0.1315,0-0.2556-0.011-0.3724-0.033
		c-0.1171-0.0217-0.2485-0.0547-0.3942-0.0985c0.0438,0.161,0.0767,0.3176,0.0986,0.4709c0.0219,0.1533,0.0328,0.2738,0.0328,0.3615
		c0,0.5402-0.2117,1.0042-0.6351,1.3906c-0.4238,0.387-0.9275,0.5804-1.5112,0.5804c-0.9199,0-1.8544-0.449-2.8035-1.347
		c-0.9494-0.8979-1.4236-1.7773-1.4236-2.6392c0-0.1605,0.0182-0.303,0.0547-0.427c0.0362-0.1238,0.0986-0.23,0.1862-0.3176
		c0.2044,0.2485,0.4891,0.6133,0.8542,1.0952c0.9637,1.3286,1.8541,1.9929,2.6721,1.9929c0.2771,0,0.5256-0.0875,0.7446-0.2627
		c0.219-0.1753,0.3285-0.3578,0.3285-0.5476c0-0.219-0.146-0.5837-0.438-1.0951c-0.2924-0.5111-0.6936-1.0875-1.2046-1.7302
		c-0.5841-0.7448-1.0699-1.2887-1.4565-1.6317c-0.3869-0.3429-0.6974-0.5146-0.9308-0.5146c-0.5114,0-0.9822,0.2737-1.4127,0.8213
		c-0.4308,0.5475-0.6461,1.1936-0.6461,1.9382c0,0.5991,0.1497,1.2671,0.449,2.0042c0.299,0.7373,0.7337,1.4783,1.3032,2.2229
		c0.8615,1.1536,1.9307,2.0403,3.2087,2.6609c1.2775,0.6211,2.6902,0.9308,4.238,0.9308c2.8472,0,5.231-1.0621,7.151-3.1864
		c1.9198-2.1245,2.8801-4.7855,2.8801-7.9833c0-0.9779-0.0733-1.7555-0.2191-2.3325
		C37.7614,28.4123,37.5205,27.9925,37.1846,27.7297z"/>
	<path d="M23.7806,32.3947c0.6425,0.8618,1.2484,1.5332,1.8179,2.0151c0.5695,0.4817,1.0218,0.7227,1.358,0.7227
		c0.2482,0,0.4742-0.1128,0.6789-0.3394c0.2044-0.2264,0.3066-0.4709,0.3066-0.7338c0-0.2772-0.2008-0.9232-0.6023-1.9384
		c-0.4019-1.0149-0.9017-2.0114-1.5003-2.9896c-0.438-0.7301-0.8687-1.2812-1.2922-1.6537
		c-0.4238-0.3722-0.825-0.5584-1.2046-0.5584c-0.3066,0-0.6461,0.1938-1.0185,0.5804c-0.3723,0.387-0.5585,0.7483-0.5585,1.0842
		c0,0.3503,0.1826,0.876,0.5475,1.5769C22.6779,30.8618,23.1673,31.6064,23.7806,32.3947z"/>
	<path d="M28.5557,4.0694c-13.5997,0-24.625,11.0234-24.625,24.623c0,13.5997,11.0253,24.625,24.625,24.625
		c13.5986,0,24.624-11.0253,24.624-24.625C53.1798,15.0928,42.1543,4.0694,28.5557,4.0694z M36.3414,40.4438
		c-2.2122,2.3433-5.0411,3.5149-8.487,3.5149c-1.3579,0-2.6757-0.2446-3.9533-0.7336c-1.278-0.4893-2.3764-1.1719-3.2962-2.0479
		c-1.0513-0.9634-1.8398-1.9818-2.3654-3.0549c-0.5257-1.0732-0.7885-2.1718-0.7885-3.2964c0-1.2556,0.2701-2.2263,0.8104-2.9128
		c0.5399-0.6863,1.3941-1.1533,2.5625-1.4019c-0.2189-0.511-0.3799-0.9418-0.4818-1.2922
		c-0.1022-0.3503-0.1533-0.6205-0.1533-0.8103c0-0.657,0.3468-1.3284,1.0403-2.015c0.6932-0.6863,1.347-1.0294,1.9603-1.0294
		c0.2628,0,0.5399,0.0475,0.8322,0.1424c0.2921,0.0952,0.6276,0.2519,1.0075,0.4709c-1.1246-3.1831-1.942-5.6398-2.453-7.3701
		c-0.5114-1.7302-0.7665-2.9239-0.7665-3.5809c0-0.9053,0.2333-1.6241,0.7009-2.1573c0.4672-0.533,1.1024-0.7994,1.9054-0.7994
		c1.3723,0,3.1101,3.0663,5.2127,9.1989c0.3647,1.0513,0.6425,1.8616,0.8323,2.4312c0.1606-0.4524,0.3867-1.0951,0.679-1.9274
		c2.1026-6.0742,3.9128-9.1112,5.4317-9.1112c0.7447,0,1.3394,0.2519,1.785,0.7556c0.4453,0.5038,0.668,1.1794,0.668,2.0259
		c0,0.6428-0.2446,1.8179-0.7337,3.5262c-0.4894,1.7084-1.2302,3.9424-2.223,6.702c1.314,0.2485,2.2413,0.8031,2.7815,1.6645
		c0.54,0.8618,0.8104,2.2197,0.8104,4.0739C39.6595,35.0888,38.5535,38.1003,36.3414,40.4438z"/>
	<path d="M36.7794,18.7171c0.5475-1.7302,0.8213-2.7925,0.8213-3.1867c0-0.4235-0.0912-0.752-0.2737-0.9856
		c-0.1829-0.2334-0.4347-0.3504-0.7556-0.3504c-0.4089,0-0.825,0.3394-1.2484,1.0184c-0.4238,0.679-0.8907,1.7707-1.4017,3.2744
		l-2.1902,6.3297l2.7597,0.4819C35.4686,22.6411,36.2318,20.4474,36.7794,18.7171z"/>
</g>
</svg>
