<?xml version="1.0" encoding="utf-8"?>
<!-- Generator: Adobe Illustrator 19.2.1, SVG Export Plug-In . SVG Version: 6.00 Build 0)  -->
<svg version="1.1" id="Layer_1" xmlns="http://www.w3.org/2000/svg" xmlns:xlink="http://www.w3.org/1999/xlink" x="0px" y="0px"
	 width="56.6934px" height="56.6934px" viewBox="0 0 56.6934 56.6934" style="enable-background:new 0 0 56.6934 56.6934;"
	 xml:space="preserve">
<g>
	<g>
		<path d="M28.3467,4.1359c-13.6721,0-24.7556,11.0835-24.7556,24.7556c0,13.6722,11.0835,24.7557,24.7556,24.7557
			c13.6722,0,24.7556-11.0835,24.7556-24.7557C53.1023,15.2194,42.0189,4.1359,28.3467,4.1359z M31.6475,33.8427L31.6475,33.8427
			l-7.0141,0.0001v7.4266h-4.9511V16.5138l11.9653,0.0001v-0.0001c4.7853,0,8.6644,3.8793,8.6644,8.6645
			C40.3119,29.9635,36.4328,33.8427,31.6475,33.8427z"/>
	</g>
	<g>
		<path d="M31.6475,21.4649L31.6475,21.4649l-7.0141,0.0001v7.4267h7.0141v-0.0001c2.0508,0,3.7132-1.6625,3.7132-3.7133
			C35.3607,23.1275,33.6983,21.465,31.6475,21.4649z"/>
	</g>
</g>
</svg>
