<?xml version="1.0" encoding="utf-8"?>
<!-- Generator: Adobe Illustrator 19.2.0, SVG Export Plug-In . SVG Version: 6.00 Build 0)  -->
<svg version="1.1" id="Layer_1" xmlns="http://www.w3.org/2000/svg" xmlns:xlink="http://www.w3.org/1999/xlink" x="0px" y="0px"
	 width="56.693px" height="56.693px" viewBox="0 0 56.693 56.693" style="enable-background:new 0 0 56.693 56.693;"
	 xml:space="preserve">
<g>
	<path d="M40.534,33.7917c0.0061-1.7099,0.0563-3.2367,0-4.3137c-0.0659-1.2487,0.0525-4.2626-5.3464-4.4853
		c0,0-5.176-0.4717-5.7134,3.3806h2.6472c0,0,0.2055-1.765,2.8916-1.7141c2.542,0.048,3.0051,1.2948,2.992,2.828
		c0,0-2.1787,0.0062-2.9058,0.0098c-1.2763,0.0064-5.6578,0.1453-6.2805,2.7331c0.0777-0.4017,0.1233-0.828,0.1316-1.2798
		c0.0697-3.7911-2.8303-5.9053-5.958-5.9226c-3.1273-0.0175-4.4726,1.8518-4.4726,1.8518v-6.2547h-2.5072l0.0321,9.9837
		c-0.0935-1.8184-0.9176-5.5798-6.1383-5.5808c-6.2196-0.0011-6.4612,4.8406-6.4295,6.0974c0,0-0.3047,5.6606,6.2774,5.6606
		c5.6556,0,5.9341-3.5518,5.9341-3.5518l-2.6021,0.0052c0,0-0.5067,1.9567-3.3213,1.9043
		c-3.6184-0.0672-3.7588-3.5727-3.7588-3.5727h10.0241c0,0,0.0095-0.0823,0.0168-0.2275l0.008,2.5008
		c0,0-0.015,1.5397-0.1099,2.5574h2.435l0.1045-1.485c0,0,1.136,1.8693,4.4551,1.8693c2.8813,0,5.2349-1.5407,5.8524-4.4262
		c-0.0052,0.0277-0.0125,0.054-0.0169,0.0823c-0.5092,3.3211,2.455,4.3572,4.7742,4.3439c2.3194-0.0131,3.6426-0.7074,4.6255-1.9523
		l0.1051,1.5461l2.3063-0.0131C40.5865,36.3664,40.5269,35.5018,40.534,33.7917z M6.0896,29.8541c0,0,0.1781-3.1701,3.7556-3.1711
		c3.5645-0.0009,3.5645,3.1711,3.5645,3.1711H6.0896z M22.4182,35.0956c-3.9494,0.0496-3.8852-4.1887-3.8852-4.1887
		s-0.1438-4.0796,3.8789-4.1845c4.0223-0.1049,3.8915,4.2715,3.8915,4.2715S26.3675,35.0458,22.4182,35.0956z M33.982,35.187
		c0,0-2.5128,0.0031-2.6601-2.0045c-0.1571-2.1427,3.8658-2.0138,3.8658-2.0138l2.842-0.0029
		C38.0297,31.1658,38.4899,35.2462,33.982,35.187z"/>
	<polygon points="50.5887,25.4468 46.3254,33.9293 42.071,25.4468 39.1624,25.4468 44.9365,36.3664 42.7091,40.5683 
		45.5216,40.5683 53.2182,25.4468 	"/>
</g>
</svg>
