<?xml version="1.0" encoding="utf-8"?>
<!-- Generator: Adobe Illustrator 19.1.0, SVG Export Plug-In . SVG Version: 6.00 Build 0)  -->
<svg version="1.1" id="Layer_1" xmlns="http://www.w3.org/2000/svg" xmlns:xlink="http://www.w3.org/1999/xlink" x="0px" y="0px"
	 viewBox="-91 49.217 56.693 56.693" enable-background="new -91 49.217 56.693 56.693" xml:space="preserve">
<g>
	<polygon points="-66.6144,71.5379 -69.8663,86.7356 -65.9349,86.7356 -62.6838,71.5379 	"/>
	<path d="M-72.4308,71.5379l-4.0916,10.3439l-1.6555-8.795c-0.1949-0.9825-0.9615-1.549-1.814-1.549h-6.6895l-0.0929,0.4413
		c1.3735,0.2985,2.934,0.7794,3.8785,1.2934c0.5788,0.3134,0.7443,0.5883,0.9343,1.3351l3.1342,12.1278h4.1556l6.37-15.1976
		H-72.4308z"/>
	<path d="M-41.2933,71.5379h-3.3572c-0.7543,0-1.39,0.4397-1.6732,1.1151l-5.8981,14.0825h4.1263l0.8211-2.2693h5.0428
		l0.4752,2.2693h3.637L-41.2933,71.5379z M-46.1433,81.3505l2.0699-5.7065l1.1915,5.7065H-46.1433z"/>
	<path d="M-57.5259,75.7488c0.0128-0.5441,0.5317-1.1233,1.6678-1.2715c0.5623-0.0743,2.1158-0.1313,3.8757,0.6799l0.6915-3.2222
		c-0.9474-0.3447-2.1637-0.675-3.6788-0.675c-3.886,0-6.6206,2.0662-6.6425,5.0242c-0.0273,2.188,1.9514,3.4088,3.4413,4.1354
		c1.5308,0.7451,2.046,1.2228,2.0394,1.8891c-0.012,1.0201-1.222,1.4697-2.3531,1.4874c-1.9763,0.0306-3.1243-0.5338-4.0367-0.9603
		l-0.713,3.33c0.9178,0.4223,2.6129,0.7897,4.3719,0.8075c4.1299,0,6.8311-2.0394,6.8447-5.1996
		C-52.001,77.7635-57.5639,77.5418-57.5259,75.7488z"/>
</g>
</svg>
