<?xml version="1.0" encoding="utf-8"?>
<!-- Generator: Adobe Illustrator 19.1.0, SVG Export Plug-In . SVG Version: 6.00 Build 0)  -->
<svg version="1.1" id="Layer_1" xmlns="http://www.w3.org/2000/svg" xmlns:xlink="http://www.w3.org/1999/xlink" x="0px" y="0px"
	 viewBox="-91 49.217 56.693 56.693" enable-background="new -91 49.217 56.693 56.693" xml:space="preserve">
<g>
	<path d="M-77.4354,80.306c0,0.3829,0.227,0.6281,0.5812,0.6281c0.6603,0,1.1362-0.6286,1.1642-1.5397
		c-0.1698-0.0198-0.2449-0.0253-0.3618-0.0253C-76.9703,79.3691-77.4354,79.6839-77.4354,80.306z"/>
	<path d="M-51.9001,80.306c0,0.3829,0.2267,0.6281,0.5807,0.6281c0.6599,0,1.1365-0.6286,1.1636-1.5397
		c-0.1692-0.0198-0.2443-0.0253-0.3608-0.0253C-51.4351,79.3691-51.9001,79.6839-51.9001,80.306z"/>
	<path d="M-64.0226,77.2439c-0.5129,0-0.8802,0.3919-1.0297,1.0993h1.7795C-63.2641,78.2143-63.1019,77.2439-64.0226,77.2439z"/>
	<path d="M-42.3622,77.4318c-0.735,0-1.2571,0.8583-1.2571,2.0695c0,0.806,0.2797,1.2134,0.8308,1.2134
		c0.7554,0,1.2853-0.8553,1.2853-2.0752C-41.5032,77.857-41.805,77.4318-42.3622,77.4318z"/>
	<path d="M-52.7702,63.2776c-3.823,0-7.3088,1.4385-9.9501,3.8015c-2.6411-2.363-6.1267-3.8015-9.9496-3.8015
		c-8.2462,0-14.9308,6.6847-14.9308,14.9307c0,8.2461,6.6847,14.93,14.9308,14.93c3.8229,0,7.3085-1.4383,9.9496-3.8011
		c2.6412,2.3628,6.1271,3.8011,9.9501,3.8011c8.2458,0,14.93-6.6839,14.93-14.93C-37.8402,69.9623-44.5243,63.2776-52.7702,63.2776z
		 M-81.3022,82.1377l0.9288-5.8213l-2.0733,5.8213h-1.1049l-0.1364-5.7875l-0.9761,5.7875h-1.5171l1.2673-7.5725h2.3309
		l0.065,4.6877l1.5728-4.6877h2.5174l-1.2538,7.5725H-81.3022z M-75.8539,82.1377l0.0306-0.6378
		c-0.4095,0.5037-0.9563,0.7448-1.6987,0.7448c-0.8785,0-1.4807-0.6867-1.4807-1.683c0-1.5,1.0474-2.3737,2.8456-2.3737
		c0.1839,0,0.4194,0.0168,0.6606,0.0479c0.0503-0.2037,0.0634-0.2903,0.0634-0.4006c0-0.4074-0.2823-0.559-1.0394-0.559
		c-0.7933-0.0095-1.447,0.188-1.7159,0.276c0.017-0.1021,0.2249-1.3848,0.2249-1.3848c0.8076-0.2369,1.3403-0.3263,1.9399-0.3263
		c1.392,0,2.1291,0.6254,2.1276,1.806c0.0028,0.3166-0.0495,0.7078-0.131,1.2204c-0.1408,0.8912-0.4429,2.8051-0.4841,3.27
		C-74.727,82.1377-75.8539,82.1377-75.8539,82.1377z M-71.1081,78.4705c0.812,0.3728,1.1426,0.8691,1.1426,1.7157
		c0,1.4073-0.7899,2.0585-2.5005,2.0585c-0.9896-0.0286-1.3182-0.1023-1.6865-0.1829c0.01-0.0641,0.2224-1.4213,0.2224-1.4213
		c0.5191,0.1673,0.9689,0.2424,1.4526,0.2424c0.6415,0,0.9308-0.1733,0.9308-0.5571c0-0.2797-0.1016-0.371-0.7578-0.6797
		c-0.8567-0.4042-1.2346-0.9401-1.2346-1.72c-0.0056-1.1378,0.6219-2.0848,2.4352-2.0848c0.3707,0,1.0069,0.0542,1.4268,0.1205
		l-0.2309,1.4281c-0.412-0.058-0.8468-0.0933-1.1646-0.0933c-0.524,0-0.7933,0.1712-0.7933,0.5042
		C-71.8657,78.0886-71.7876,78.1577-71.1081,78.4705z M-67.5298,80.7391c0.1848,0,0.3276-0.0179,0.4373-0.058l-0.2152,1.3631
		c-0.4433,0.1396-0.7894,0.2005-1.1641,0.2005c-0.8287,0-1.2812-0.4765-1.2812-1.3526c-0.0114-0.2733,0.1195-0.988,0.2225-1.6419
		c0.0933-0.576,0.7028-4.203,0.7028-4.203h1.6111l-0.1885,0.9321h0.8272l-0.2203,1.4797h-0.83
		c-0.1871,1.1722-0.4539,2.6303-0.4572,2.8239C-68.0851,80.6014-67.915,80.7391-67.5298,80.7391z M-63.7747,80.8516
		c0.5765,0,1.0967-0.1193,1.6758-0.3885l-0.2682,1.5323c-0.5537,0.1696-1.0883,0.2498-1.6537,0.2493
		c-1.8039-0.0014-2.7435-0.9438-2.7435-2.7476c0-2.1059,1.1959-3.6559,2.8187-3.6559c1.3295,0,2.1777,0.8677,2.1777,2.2297
		c0,0.4515-0.0589,0.8921-0.1981,1.5142h-3.2088C-65.2837,80.4788-64.7115,80.8516-63.7747,80.8516z M-60.1569,82.1377h-1.6217
		l0.0737-0.4142c0.2816-1.9075,0.6424-3.838,0.8461-5.7442h1.4885c0.0142,0.3126-0.0576,0.6187-0.0968,0.9341
		c0.4958-0.7291,0.8756-1.1127,1.554-0.9712c-0.2004,0.3403-0.4705,1.0152-0.6161,1.7861
		C-59.4376,77.6364-59.5767,78.3715-60.1569,82.1377z M-53.9383,82.0226c-0.5968,0.1626-0.983,0.2221-1.4323,0.2221
		c-1.7452,0-2.8323-1.2549-2.8323-3.2697c0-2.7073,1.5028-4.5992,3.6507-4.5992c0.7078,0,1.5438,0.2998,1.7816,0.3934
		l-0.2654,1.6432c-0.5788-0.291-0.9982-0.4088-1.4479-0.4088c-1.2101,0-2.059,1.1696-2.059,2.8377
		c0,1.1494,0.5705,1.8439,1.5129,1.8439c0.399,0,0.8401-0.1235,1.3765-0.3885L-53.9383,82.0226z M-48.9761,82.1377
		c-0.2157,0-1.343,0-1.343,0l0.0305-0.6378c-0.4097,0.5037-0.9563,0.7448-1.6982,0.7448c-0.8793,0-1.4807-0.6867-1.4807-1.683
		c0-1.5,1.0465-2.3737,2.8452-2.3737c0.1839,0,0.4189,0.0168,0.6599,0.0479c0.0502-0.2037,0.0636-0.2903,0.0636-0.4006
		c0-0.4074-0.2816-0.559-1.0392-0.559c-0.7926-0.0095-1.4461,0.188-1.7157,0.276c0.0171-0.1021,0.2249-1.3848,0.2249-1.3848
		c0.8079-0.2369,1.3401-0.3263,1.9397-0.3263c1.3917,0,2.1295,0.6254,2.1277,1.806c0.0032,0.3166-0.0493,0.7078-0.1309,1.2204
		C-48.6328,79.7589-48.9346,81.6728-48.9761,82.1377z M-46.8138,82.1377h-1.6213l0.0738-0.4142
		c0.282-1.9075,0.6424-3.838,0.8452-5.7442h1.4894c0.0134,0.3126-0.058,0.6187-0.0977,0.9341
		c0.4968-0.7291,0.876-1.1127,1.5549-0.9712c-0.201,0.3403-0.4705,1.0152-0.6152,1.7861
		C-46.0945,77.6364-46.2341,78.3715-46.8138,82.1377z M-41.9304,82.1377l0.076-0.5732c-0.4447,0.4751-0.9005,0.6802-1.4944,0.6802
		c-1.178,0-1.9572-1.0153-1.9572-2.5558c0-2.0485,1.2083-3.7753,2.6373-3.7753c0.6286,0,1.1047,0.2567,1.548,0.8401l0.3595-2.1885
		h1.5986l-1.2346,7.5725H-41.9304z"/>
</g>
</svg>
