<?xml version="1.0" encoding="utf-8"?>
<!-- Generator: Adobe Illustrator 19.1.0, SVG Export Plug-In . SVG Version: 6.00 Build 0)  -->
<svg version="1.1" id="Layer_1" xmlns="http://www.w3.org/2000/svg" xmlns:xlink="http://www.w3.org/1999/xlink" x="0px" y="0px"
	 viewBox="-91 49.217 56.693 56.693" enable-background="new -91 49.217 56.693 56.693" xml:space="preserve">
<g id="g10088_1_" transform="matrix(0.58397792,0,0,0.58397792,-520.1179,950.32031)">
	<path id="path10079_1_" d="M775.0542-1516.0869c-3.3707,0.0442-6.2726,0.705-9.1237,2.1252
		c-7.2805,3.627-11.4852,11.2648-11.4852,20.8881c0,9.6458,4.136,17.0565,11.4423,20.5232c1.9737,0.9365,3.952,1.4462,6.9555,1.8032
		c1.5203,0.0616,2.9416,0.1691,4.4224,0c3.0035-0.3571,4.9818-0.8667,6.9555-1.8032c7.3063-3.4667,11.4423-10.8774,11.4423-20.5232
		c0-9.6233-4.2047-17.2611-11.4852-20.8881C781.3269-1515.382,778.425-1516.0427,775.0542-1516.0869L775.0542-1516.0869z
		 M777.9524-1509.3031c4.3715,1.1652,7.5436,5.1094,8.7589,10.8627c0.8536,4.0405,0.621,8.7095-0.6011,12.3868
		c-1.9031,5.7268-6.0347,8.9611-11.0559,8.9091c-5.0211,0.052-9.1528-3.1821-11.0558-8.9091
		c-1.222-3.6774-1.4547-8.3463-0.6011-12.3868c1.2152-5.7533,4.3873-9.6975,8.7588-10.8627
		C774.1383-1509.7233,776.1133-1509.6476,777.9524-1509.3031L777.9524-1509.3031z"/>
	<path id="path10077_1_" d="M746.0235-1516.0869c-2.4136,0-4.3702,1.9567-4.3702,4.3702s1.9566,4.3702,4.3702,4.3702
		s4.3702-1.9567,4.3702-4.3702S748.4371-1516.0869,746.0235-1516.0869z M741.9399-1502.7524v32.0961h8.1672v-32.0961H741.9399z"/>
	<path id="path10039_1_" d="M807.538-1470.7236c-3.4991-0.5991-6.8647-1.0635-9.7213-2.6848
		c-0.0381-0.0336,1.6865-6.4773,1.7643-6.5923c4.5914,1.559,11.0551,3.746,15.4131,1.7426c2.376-1.1886,3.5464-3.3859,3.1533-5.9197
		c-0.4423-2.8507-2.4164-4.4933-7.8339-6.5187c-6.0423-2.2589-9.5861-5.0358-11.0343-8.6464
		c-0.7121-1.7753-0.9482-4.0355-0.6279-6.0099c0.8909-5.4908,5.1685-9.3109,11.7334-10.4783
		c1.902-0.3383,5.9692-0.3418,7.9703-0.0068c2.8841,0.4824,6.1913,1.5732,6.1913,2.0419c0,0.173-1.6899,6.131-1.7765,6.2631
		c-2.8515-1.1294-6.0494-1.9366-8.7558-1.9521c-3.83-0.0535-7.9826,2.2196-7.2505,6.234c0.5184,2.5159,2.1241,3.7441,8.0333,6.1454
		c4.3522,1.7686,6.4406,2.9884,8.231,4.8077c2.4874,2.4841,3.2736,5.3984,3.2919,8.2869c0.0066,2.4062-0.2177,3.5288-1.0762,5.3862
		c-2.0856,4.5122-6.3378,7.1348-12.7239,7.8474C811.3228-1470.644,808.504-1470.6134,807.538-1470.7236L807.538-1470.7236z"/>
</g>
</svg>
