<?xml version="1.0" encoding="utf-8"?>
<!-- Generator: Adobe Illustrator 19.1.0, SVG Export Plug-In . SVG Version: 6.00 Build 0)  -->
<svg version="1.1" id="Layer_1" xmlns="http://www.w3.org/2000/svg" xmlns:xlink="http://www.w3.org/1999/xlink" x="0px" y="0px"
	 viewBox="-91 49.217 56.693 56.693" enable-background="new -91 49.217 56.693 56.693" xml:space="preserve">
<g>
	<path d="M-63.0425,54.022c-13.5996,0-24.625,11.0234-24.625,24.623c0,13.5997,11.0254,24.625,24.625,24.625
		c13.5986,0,24.624-11.0253,24.624-24.625C-38.4185,65.0454-49.4439,54.022-63.0425,54.022z M-63.0425,101.27
		c-12.4755,0-22.625-10.1495-22.625-22.625c0-12.4744,10.1495-22.623,22.625-22.623c12.4749,0,22.624,10.1486,22.624,22.623
		C-40.4185,91.1204-50.5676,101.27-63.0425,101.27z"/>
	<polygon points="-54.7482,64.822 -63.043,76.6082 -71.3379,64.822 -74.1499,64.822 -64.449,78.6061 -74.1499,92.3901 
		-71.3379,92.3901 -63.043,80.6039 -54.7482,92.3901 -51.9362,92.3901 -61.6369,78.6061 -51.9362,64.822 	"/>
</g>
</svg>
