<?xml version="1.0" encoding="utf-8"?>
<!-- Generator: Adobe Illustrator 19.1.0, SVG Export Plug-In . SVG Version: 6.00 Build 0)  -->
<svg version="1.1" id="Layer_1" xmlns="http://www.w3.org/2000/svg" xmlns:xlink="http://www.w3.org/1999/xlink" x="0px" y="0px"
	 viewBox="-91 49.217 56.693 56.693" enable-background="new -91 49.217 56.693 56.693" xml:space="preserve">
<g>
	<path d="M-79.3798,77.0069c-0.7891-0.2162-1.3236,0.1957-1.6342,1.2595l-1.2454,4.2288c-2.0242-3.8236-2.4746-4.674-2.5903-4.8746
		l0.0071-0.0035c-0.2122-0.4236-0.8255-0.7292-1.4448-0.4836c-0.7769,0.295-1.0563,1.0051-0.7391,1.9205
		c0.0336,0.0682,3.3547,6.8269,3.3965,6.9135c0,0,0.0706,0.1851,0.0828,0.2519c0,0,0.0265,0.1597,0.0286,0.1597
		c-0.0057,0.2187-0.0745,0.3967-0.1973,0.5133c-0.1247,0.1162-0.2955,0.1766-0.4995,0.1643c0,0-0.5349-0.0128-0.5978-0.0106
		c-0.6243,0.077-1.0346,0.4589-1.0978,1.0196c-0.0454,0.3688,0.0735,0.6964,0.3441,0.9475
		c0.3084,0.2851,0.7938,0.4328,1.3885,0.4328c0.2745,0,0.5723-0.0315,0.8864-0.0954c0.9295-0.1841,1.5374-0.614,2.0867-2.3554
		l2.6104-8.2079c0.15-0.4826,0.1355-0.9097-0.0435-1.2372C-78.7896,77.2807-79.0392,77.098-79.3798,77.0069z"/>
	<path d="M-71.0457,77.6425c-0.8408-0.6367-2.0201-0.843-3.4085-0.5928c-1.7645,0.3056-2.8251,1.5605-3.0669,3.6286
		c-0.2902,2.4289,0.1194,4.2681,1.1846,5.3184c0.6594,0.6511,1.5693,0.986,2.6618,0.986c0.2568,0,0.5238-0.0184,0.8-0.0558
		c2.2084-0.3105,3.0314-1.5353,3.0314-2.2349c0-0.6013-0.3752-1.0726-0.9012-1.144c-0.3566-0.0717-0.6368,0.0477-1.1113,0.4706
		c-0.6469,0.5638-1.3926,0.7924-2.0444,0.6282c-0.4851-0.1237-0.8615-0.4565-1.0267-0.8931
		c-0.032-0.1282-0.0557-0.2225-0.0786-0.2908h0.001c-0.022-0.1166-0.089-0.4713,0.0272-0.5483l4.3073-0.0032
		c0.3826,0,0.6746-0.0403,0.8576-0.2385c0.2861-0.3198,0.2761-1.0577,0.1618-2.2247
		C-69.7707,79.2114-70.2531,78.2413-71.0457,77.6425z M-75.6166,80.9181c-0.0196-0.0565-0.0127-0.1685,0.0203-0.331
		c0.0426-0.177,0.0859-0.33,0.2185-0.5476l0.1318-0.2039c0.2323-0.2932,0.5554-0.4949,0.9362-0.5844
		c0.5785-0.1406,1.0853-0.0781,1.4645,0.1823c0.3464,0.2371,0.5632,0.6215,0.6274,1.1136c0.0278,0.1929,0.0343,0.3063,0.0338,0.3709
		H-75.6166z"/>
	<path d="M-65.1686,74.7547l-0.0054-0.0441c-0.0747-0.2957-0.3125-0.5511-0.6363-0.6833l-0.0005-0.0003
		c-0.3958-0.1604-0.8464-0.1187-1.236,0.1134c-0.3877,0.2292-0.553,0.5825-0.553,1.1807l0.0021,10.4177
		c0.059,0.3883,0.0636,0.4017,0.067,0.4105c0.0894,0.3127,0.319,0.5737,0.6298,0.7158c0.1687,0.0778,0.3503,0.1163,0.5326,0.1163
		c0.1888,0,0.3782-0.0414,0.5538-0.124c0.4467-0.1929,0.7133-0.6338,0.7133-1.1789l-0.0016-10.434
		C-65.1031,75.2443-65.1653,74.778-65.1686,74.7547z"/>
	<path d="M-57.5145,76.9426c-1.0139-0.2059-1.8774-0.0367-2.7311,0.5423c0,0-0.071,0.0594-0.091,0.0724l-0.0826,0.0413
		l-0.0917-0.2145l-0.0768-0.1148c-0.272-0.4232-0.9991-0.6281-1.6456-0.2586c-0.3798,0.2145-0.5209,0.5345-0.5209,1.1818v10.198
		c0,0.6302,0.216,1.0401,0.6571,1.2507c0.2015,0.1017,0.4181,0.1526,0.6322,0.1526c0.1784,0,0.3554-0.0353,0.5204-0.1071
		c0.3167-0.1381,0.5483-0.3882,0.6411-0.7122l0.0639-0.4621l-0.0003-1.7753l-0.0173-0.2586l0.0433-0.1922l0.1187,0.0792
		c0,0,0.0616,0.0403,0.1143,0.088l0.1074,0.0724l0.2258,0.1194c0.9039,0.4279,2.1139,0.3798,3.0826-0.1215
		c1.2203-0.6363,1.8256-1.7562,1.9629-3.6311C-54.3166,79.175-55.1877,77.3952-57.5145,76.9426z M-57.6556,84.5697
		c-0.9929,0-1.4656-0.6381-1.5328-2.0685l-0.0021-0.0421c-0.0049-0.124-0.0166-0.5073-0.0166-0.5073
		c0.0001-0.0113,0.0168-0.4254,0.0164-0.4314c0.0991-1.7841,0.4891-2.1999,1.1782-2.3433c0.5319-0.1247,0.9333-0.0696,1.2269,0.1671
		c0.4601,0.3699,0.6653,1.1902,0.6454,2.5822C-56.1568,83.8532-56.5676,84.5697-57.6556,84.5697z"/>
	<path d="M-52.9145,84.339c-0.6205,0-1.1065,0.4854-1.1065,1.1047c0,0.6207,0.486,1.1069,1.1065,1.1069
		c0.6102,0,1.1065-0.4964,1.1065-1.1069C-51.808,84.8347-52.3043,84.339-52.9145,84.339z"/>
	<path d="M-52.6696,80.6825c0.152,0.2897,0.4214,0.4684,0.7178,0.4787c0.0164,0.001,0.0314,0.0018,0.0474,0.0018
		c0.1622,0,0.4119-0.077,3.1084-0.9433c0.9339-0.2982,1.1862-0.3787,1.2612-0.4038c0.3897-0.0996,0.6587-0.455,0.6854-0.9062
		c0.0248-0.46-0.2231-0.868-0.6121-1.0135c-0.5992-0.2441-0.8102-0.3303-0.8949-0.3604l0.0013-0.0029
		c-3.2128-1.3255-3.2283-1.3259-3.4133-1.328c-0.2997-0.0137-0.5734,0.142-0.7521,0.4236
		c-0.3375,0.5427-0.4672,2.1339-0.3575,3.1955C-52.8346,80.2133-52.7645,80.502-52.6696,80.6825z"/>
	<path d="M-45.9186,80.6387c-0.4291-0.1657-0.8925-0.0565-1.1509,0.2671c0,0-0.4204,0.4992-0.5706,0.6765l-0.054,0.0636
		c-2.2487,2.6391-2.2567,2.662-2.3173,2.8373c-0.0431,0.1169-0.0581,0.2371-0.0449,0.3536
		c0.0159,0.1693,0.0899,0.3378,0.2148,0.4882c0.4985,0.5921,2.6567,1.4135,3.6155,1.4135c0.0726,0,0.1385-0.0046,0.196-0.0145
		c0.33-0.0601,0.5704-0.2491,0.6786-0.5381c0.0598-0.1745,0.0645-0.1887,0.0733-3.2912c0,0,0.0069-1.2859,0.0074-1.3248
		C-45.2447,81.1658-45.4993,80.8001-45.9186,80.6387z"/>
	<path d="M-45.7166,68.0539c-0.0828-0.3021-0.3204-0.5228-0.6522-0.6055c-0.8841-0.2197-4.1149,0.6889-4.7386,1.3326
		c-0.2268,0.236-0.3188,0.543-0.2337,0.8553c0.0936,0.1926,3.6101,5.7261,4.0095,6.3546c0.3551,0.5751,0.7375,0.8644,1.1397,0.8644
		c0.0896,0,0.18-0.0141,0.2714-0.0431c0.5022-0.1544,0.7368-0.6479,0.697-1.4665c-0.0557-1.2786-0.4398-6.9894-0.4893-7.2749
		L-45.7166,68.0539z"/>
	<path d="M-43.5084,78.4286l-0.2595,0.2812l0.7089-0.2635c0.1526-0.0569,0.4582-0.1307,0.944-0.2462
		c3.3591-0.8137,3.3907-0.8342,3.5452-0.9344c0.2498-0.17,0.3761-0.4476,0.3563-0.7709l0.0005-0.0332l-0.0016-0.0142
		c-0.0903-0.8585-1.5274-2.9792-2.2617-3.3372c-0.3032-0.147-0.6108-0.1332-0.8638,0.0375
		c-0.1544,0.1006-0.1917,0.1498-1.9948,2.6161c0,0-0.7511,1.0231-0.7859,1.068c-0.2572,0.312-0.265,0.756-0.0198,1.1319
		C-43.9833,78.2046-43.7546,78.367-43.5084,78.4286z"/>
	<path d="M-38.4119,81.2488c-0.1443-0.1077-0.1561-0.1166-3.1098-1.0874c-0.4759-0.1569-1.2026-0.3971-1.2561-0.4176
		c-0.3766-0.1445-0.8023-0.0148-1.084,0.3321c-0.291,0.3547-0.3295,0.8317-0.0989,1.1828l0.5024,0.8175
		c1.7576,2.8549,1.833,2.9634,1.9827,3.0803c0.145,0.1138,0.3135,0.171,0.4932,0.171c0.1166,0,0.2378-0.024,0.3604-0.0731
		c0.7716-0.3081,2.3907-2.3653,2.511-3.1917C-38.0662,81.7342-38.1741,81.4389-38.4119,81.2488z"/>
</g>
</svg>
