<?xml version="1.0" encoding="utf-8"?>
<!-- Generator: Adobe Illustrator 19.1.0, SVG Export Plug-In . SVG Version: 6.00 Build 0)  -->
<svg version="1.1" id="Layer_1" xmlns="http://www.w3.org/2000/svg" xmlns:xlink="http://www.w3.org/1999/xlink" x="0px" y="0px"
	 viewBox="-91 49.217 56.693 56.693" enable-background="new -91 49.217 56.693 56.693" xml:space="preserve">
<path d="M-55.4243,66.9376c0-3.705,1.4325-5.6318,3.4581-5.6318c1.9271,0,3.2118,1.7291,3.2118,5.2368
	c0,1.9944-0.5341,4.1801-0.9285,5.4733c0,0,1.9182,3.3462,7.1634,2.3192c1.1138-2.4726,1.7192-5.6749,1.7192-8.4839
	c0-7.559-3.8537-11.9558-10.9186-11.9558c-7.2619,0-11.5109,5.5827-11.5109,12.944c0,7.2924,3.409,13.5519,9.0304,16.4041
	c-2.3638,4.7284-5.3715,8.8935-8.5084,12.0317c-5.6912-6.8799-10.8362-16.0582-12.9474-33.9694h-8.3964
	c3.8793,29.8305,15.4398,39.3289,18.4965,41.1528c1.7291,1.0375,3.2178,0.9882,4.7988,0.0984
	c2.4819-1.4113,9.9341-8.8621,14.0646-17.5897c1.7338-0.0048,3.8169-0.2038,5.8913-0.6725v-5.8732
	c-1.2709,0.293-2.5002,0.4222-3.6068,0.4222C-50.6318,78.844-55.4243,74.4967-55.4243,66.9376z"/>
</svg>
