<?xml version="1.0" encoding="utf-8"?>
<!-- Generator: Adobe Illustrator 19.2.0, SVG Export Plug-In . SVG Version: 6.00 Build 0)  -->
<svg version="1.1" id="Layer_1" xmlns="http://www.w3.org/2000/svg" xmlns:xlink="http://www.w3.org/1999/xlink" x="0px" y="0px"
	 width="56.6934px" height="56.6934px" viewBox="0 0 56.6934 56.6934" style="enable-background:new 0 0 56.6934 56.6934;"
	 xml:space="preserve">
<g>
	<path d="M39.332,18.0622L12.6744,3.7905C11.2891,3.0489,9.787,3.011,8.4869,3.485l22.7111,22.7111L39.332,18.0622z"/>
	<path d="M49.2731,23.3844l-7.6787-4.1109l-8.6595,8.6594l8.6595,8.6595l7.6786-4.111
		C52.9054,30.5368,52.9054,25.329,49.2731,23.3844z"/>
	<path d="M6.4077,4.8794C5.5932,5.7746,5.0798,6.9697,5.0798,8.339v39.1878c0,1.3693,0.5134,2.5645,1.3278,3.4597l23.0536-23.0536
		L6.4077,4.8794z"/>
	<path d="M8.4869,52.3809c1.3,0.4739,2.8022,0.4362,4.1875-0.3055L39.332,37.8037l-8.1339-8.1339L8.4869,52.3809z"/>
</g>
</svg>
