<?xml version="1.0" encoding="utf-8"?>
<!-- Generator: Adobe Illustrator 19.2.1, SVG Export Plug-In . SVG Version: 6.00 Build 0)  -->
<svg version="1.1" id="Layer_1" xmlns="http://www.w3.org/2000/svg" xmlns:xlink="http://www.w3.org/1999/xlink" x="0px" y="0px"
	 width="56.7px" height="56.7px" viewBox="0 0 56.7 56.7" style="enable-background:new 0 0 56.7 56.7;" xml:space="preserve">
<path d="M28.3502,2.3966c-10.6986,0-19.3711,8.6725-19.3711,19.3711c0,14.4035,15.4906,30.2321,19.3708,30.2321
	S47.721,36.1716,47.721,21.7677C47.721,11.0691,39.0488,2.3966,28.3502,2.3966z M28.3498,33.5851
	c-6.4913,0-11.7532-5.2623-11.7532-11.7536c0-2.5732,0.8295-4.9512,2.2317-6.8869c0.1504,2.4859,2.2089,4.457,4.7323,4.457
	c2.622,0,4.7469-2.1253,4.7469-4.7469c0-1.8726-1.0874-3.4873-2.6629-4.2599c0.8688-0.205,1.774-0.3165,2.7052-0.3165
	c6.4913,0,11.7532,5.262,11.7532,11.7532S34.8411,33.5851,28.3498,33.5851z"/>
</svg>
