<?xml version="1.0" encoding="utf-8"?>
<!-- Generator: Adobe Illustrator 19.2.1, SVG Export Plug-In . SVG Version: 6.00 Build 0)  -->
<svg version="1.1" id="Layer_1" xmlns="http://www.w3.org/2000/svg" xmlns:xlink="http://www.w3.org/1999/xlink" x="0px" y="0px"
	 width="56.7px" height="56.7px" viewBox="0 0 56.7 56.7" style="enable-background:new 0 0 56.7 56.7;" xml:space="preserve">
<g>
	<path d="M20.6428,12.786c0-1.6437-1.008-3.718-5.2224-3.718c-1.7375,0-6.5005,0-6.5005,0L7.084,17.6048c0,0,3.5042,0,6.7575,0
		C19.1341,17.6048,20.6428,15.1059,20.6428,12.786L20.6428,12.786z"/>
	<path d="M38.1301,12.786c0-1.6437-1.0028-3.718-5.2209-3.718c-1.7269,0-6.489,0-6.489,0l-1.8451,8.5368c0,0,3.5042,0,6.761,0
		C36.6277,17.6048,38.1301,15.1059,38.1301,12.786L38.1301,12.786z"/>
	<path d="M18.2971,25.6328c0-1.6428-1.0066-3.7089-5.2249-3.7089c-1.7273,0-6.4913,0-6.4913,0l-1.8474,8.5253c0,0,3.51,0,6.7739,0
		C16.7874,30.4492,18.2971,27.9497,18.2971,25.6328L18.2971,25.6328z"/>
	<path d="M35.7859,25.6328c0-1.6428-1.0042-3.7089-5.2157-3.7089c-1.7379,0-6.4981,0-6.4981,0l-1.8436,8.5253c0,0,3.5076,0,6.7609,0
		C34.2795,30.4492,35.7859,27.9497,35.7859,25.6328L35.7859,25.6328z"/>
	<path d="M54.0852,20.4234c0-1.6414-0.9994-3.7185-5.2162-3.7185c-1.7374,0-6.4942,0-6.4942,0l-1.8485,8.5396c0,0,3.5071,0,6.7634,0
		C52.5812,25.2446,54.0852,22.7437,54.0852,20.4234L54.0852,20.4234z"/>
	<path d="M51.566,33.8035c0-1.637-1.0037-3.7185-5.222-3.7185c-1.7287,0-6.4942,0-6.4942,0l-1.8412,8.5354c0,0,3.5105,0,6.7648,0
		C50.0596,38.6204,51.566,36.1243,51.566,33.8035L51.566,33.8035z"/>
	<path d="M33.269,39.0095c0-1.6389-0.9975-3.7175-5.2095-3.7175c-1.7379,0-6.5004,0-6.5004,0l-1.8446,8.5411c0,0,3.5138,0,6.7763,0
		C31.7699,43.8331,33.269,41.3375,33.269,39.0095L33.269,39.0095z"/>
</g>
</svg>
