<?xml version="1.0" encoding="utf-8"?>
<!-- Generator: Adobe Illustrator 19.2.1, SVG Export Plug-In . SVG Version: 6.00 Build 0)  -->
<svg version="1.1" id="Layer_1" xmlns="http://www.w3.org/2000/svg" xmlns:xlink="http://www.w3.org/1999/xlink" x="0px" y="0px"
	 width="56.7px" height="56.7px" viewBox="0 0 56.7 56.7" style="enable-background:new 0 0 56.7 56.7;" xml:space="preserve">
<g>
	<polygon points="31.1329,29.5009 41.0652,15.3052 26.9446,25.3422 	"/>
	<path d="M28.5533,2.9256c-13.7298,0-24.8599,11.1301-24.8599,24.8599c0,13.7297,11.1301,24.8599,24.8599,24.8599
		c13.7297,0,24.8599-11.1302,24.8599-24.8599C53.4132,14.0557,42.283,2.9256,28.5533,2.9256z M43.5428,13.5093l-11.9531,17.084
		c-0.0532,0.0757-0.1295,0.1262-0.2128,0.1627L14.4939,42.7563c-0.0869,0.0625-0.1885,0.0928-0.2896,0.0928
		c-0.1279,0-0.2554-0.0488-0.3521-0.1455c-0.1729-0.1709-0.1973-0.4414-0.0576-0.6416l11.9531-17.084
		c0.0532-0.0757,0.1295-0.1262,0.2128-0.1627l16.8829-12.0004c0.1963-0.1426,0.4678-0.1211,0.6416,0.0527
		C43.658,13.0386,43.6824,13.3091,43.5428,13.5093z"/>
</g>
</svg>
